<svg viewBox="111.99244537353516 -812.85439453125 540.1989013671875 442.75819702148436" version="1.1" xmlns="http://www.w3.org/2000/svg">
<path d="M77.62145081770905,227.1816862795778 81.56068182975793,226.4870935689101" transform="scale(3.543299873306695,-3.543299873306695)" style="stroke:black; stroke-width:0.2; fill:none"/>
<path d="M81.56068182975793,226.4870935689101 79.54636296882148,215.0633236339685" transform="scale(3.543299873306695,-3.543299873306695)" style="stroke:black; stroke-width:0.2; fill:none"/>
<path d="M79.54636296882148,215.0633236339685 75.60713195677265,215.7579163446362" transform="scale(3.543299873306695,-3.543299873306695)" style="stroke:black; stroke-width:0.2; fill:none"/>
<path d="M98.2350447339495,210.9778075687951 A2,2,0,0,0,100.2350447339495,212.9778075687951 A2,2,0,0,0,102.2350447339495,210.9778075687951 A2,2,0,0,0,100.2350447339495,208.9778075687951 A2,2,0,0,0,98.2350447339495,210.9778075687951 Z" transform="scale(3.543299873306695,-3.543299873306695)" style="stroke:black; stroke-width:0.2; fill:none"/>
<path d="M84.39551633656559,224.9751825434269 A1.6,1.6,0,0,0,85.99551633656559,226.5751825434269 A1.6,1.6,0,0,0,87.59551633656558,224.9751825434269 A1.6,1.6,0,0,0,85.99551633656559,223.37518254342692 A1.6,1.6,0,0,0,84.39551633656559,224.9751825434269 Z" transform="scale(3.543299873306695,-3.543299873306695)" style="stroke:black; stroke-width:0.2; fill:none"/>
<path d="M82.63121978779101,214.9693596019473 A1.6,1.6,0,0,0,84.231219787791,216.5693596019473 A1.6,1.6,0,0,0,85.831219787791,214.9693596019473 A1.6,1.6,0,0,0,84.231219787791,213.3693596019473 A1.6,1.6,0,0,0,82.63121978779101,214.9693596019473 Z" transform="scale(3.543299873306695,-3.543299873306695)" style="stroke:black; stroke-width:0.2; fill:none"/>
<path d="M99.4479160146265,223.4618143283795 A1.1,1.1,0,0,0,100.5479160146265,224.56181432837948 A1.1,1.1,0,0,0,101.64791601462649,223.4618143283795 A1.1,1.1,0,0,0,100.5479160146265,222.3618143283795 A1.1,1.1,0,0,0,99.4479160146265,223.4618143283795 Z" transform="scale(3.543299873306695,-3.543299873306695)" style="stroke:black; stroke-width:0.2; fill:none"/>
<path d="M51.08504473394959,107.577807568795 A0.7,0.7,0,0,0,51.78504473394959,108.277807568795 A0.7,0.7,0,0,0,52.48504473394959,107.577807568795 A0.7,0.7,0,0,0,51.78504473394959,106.87780756879499 A0.7,0.7,0,0,0,51.08504473394959,107.577807568795 Z" transform="scale(3.543299873306695,-3.543299873306695)" style="stroke:black; stroke-width:0.2; fill:none"/>
<path d="M67.1850447339496,107.577807568795 A0.7,0.7,0,0,0,67.8850447339496,108.277807568795 A0.7,0.7,0,0,0,68.5850447339496,107.577807568795 A0.7,0.7,0,0,0,67.8850447339496,106.87780756879499 A0.7,0.7,0,0,0,67.1850447339496,107.577807568795 Z" transform="scale(3.543299873306695,-3.543299873306695)" style="stroke:black; stroke-width:0.2; fill:none"/>
<path d="M59.8850447339496,107.577807568795 A0.7,0.7,0,0,0,60.5850447339496,108.277807568795 A0.7,0.7,0,0,0,61.285044733949604,107.577807568795 A0.7,0.7,0,0,0,60.5850447339496,106.87780756879499 A0.7,0.7,0,0,0,59.8850447339496,107.577807568795 Z" transform="scale(3.543299873306695,-3.543299873306695)" style="stroke:black; stroke-width:0.2; fill:none"/>
<path d="M102.21348203786965,214.35404566539518 A0.3999999999999568,0.3999999999999568 0 1,1 102.14848787421795,213.5566901871478" transform="scale(3.543299873306695,-3.543299873306695)" style="stroke:black; stroke-width:0.2; fill:none"/>
<path d="M102.2134820378697,214.3540456653951 103.110506950898,214.2809272312869" transform="scale(3.543299873306695,-3.543299873306695)" style="stroke:black; stroke-width:0.2; fill:none"/>
<path d="M103.04551278724634,213.4835717530395 A0.3999999999999759,0.3999999999999759 0 1,1 103.11050695089807,214.28092723128688" transform="scale(3.543299873306695,-3.543299873306695)" style="stroke:black; stroke-width:0.2; fill:none"/>
<path d="M103.0455127872463,213.4835717530394 102.1484878742179,213.5566901871477" transform="scale(3.543299873306695,-3.543299873306695)" style="stroke:black; stroke-width:0.2; fill:none"/>
<path d="M102.8065537811919,221.6299144044031 103.7035786942203,221.5567959702949" transform="scale(3.543299873306695,-3.543299873306695)" style="stroke:black; stroke-width:0.2; fill:none"/>
<path d="M103.63858453056854,220.75944049204742 A0.3999999999999759,0.3999999999999759 0 1,1 103.70357869422027,221.5567959702948" transform="scale(3.543299873306695,-3.543299873306695)" style="stroke:black; stroke-width:0.2; fill:none"/>
<path d="M103.6385845305685,220.7594404920474 102.7415596175401,220.8325589261557" transform="scale(3.543299873306695,-3.543299873306695)" style="stroke:black; stroke-width:0.2; fill:none"/>
<path d="M102.80655378119185,221.62991440440308 A0.3999999999999568,0.3999999999999568 0 1,1 102.74155961754015,220.8325589261557" transform="scale(3.543299873306695,-3.543299873306695)" style="stroke:black; stroke-width:0.2; fill:none"/>
<path d="M97.52407373780257,222.0605007385959 A0.3999999999999568,0.3999999999999568 0 1,1 97.45907957415086,221.26314526034852" transform="scale(3.543299873306695,-3.543299873306695)" style="stroke:black; stroke-width:0.2; fill:none"/>
<path d="M97.52407373780265,222.0605007385959 98.421098650831,221.9873823044877" transform="scale(3.543299873306695,-3.543299873306695)" style="stroke:black; stroke-width:0.2; fill:none"/>
<path d="M98.35610448717928,221.19002682624023 A0.3999999999999759,0.3999999999999759 0 1,1 98.42109865083101,221.9873823044876" transform="scale(3.543299873306695,-3.543299873306695)" style="stroke:black; stroke-width:0.2; fill:none"/>
<path d="M98.35610448717924,221.1900268262402 97.45907957415086,221.2631452603485" transform="scale(3.543299873306695,-3.543299873306695)" style="stroke:black; stroke-width:0.2; fill:none"/>
<path d="M96.93100199448023,214.78463199958807 A0.3999999999999568,0.3999999999999568 0 1,1 96.86600783082852,213.9872765213407" transform="scale(3.543299873306695,-3.543299873306695)" style="stroke:black; stroke-width:0.2; fill:none"/>
<path d="M96.93100199448028,214.7846319995881 97.82802690750864,214.7115135654798" transform="scale(3.543299873306695,-3.543299873306695)" style="stroke:black; stroke-width:0.2; fill:none"/>
<path d="M97.76303274385691,213.9141580872324 A0.3999999999999759,0.3999999999999759 0 1,1 97.82802690750864,214.71151356547978" transform="scale(3.543299873306695,-3.543299873306695)" style="stroke:black; stroke-width:0.2; fill:none"/>
<path d="M97.76303274385687,213.9141580872324 96.86600783082852,213.9872765213406" transform="scale(3.543299873306695,-3.543299873306695)" style="stroke:black; stroke-width:0.2; fill:none"/>
<path d="M80.43966921200735,214.1112745312377 81.52295774032078,213.9202615358041" transform="scale(3.543299873306695,-3.543299873306695)" style="stroke:black; stroke-width:0.2; fill:none"/>
<path d="M81.41876883372058,213.32937688399673 A0.3000000000000196,0.3000000000000196 0 0,1 81.52295774032078,213.9202615358041" transform="scale(3.543299873306695,-3.543299873306695)" style="stroke:black; stroke-width:0.2; fill:none"/>
<path d="M81.4187688337206,213.3293768839968 80.33548030540719,213.5203898794303" transform="scale(3.543299873306695,-3.543299873306695)" style="stroke:black; stroke-width:0.2; fill:none"/>
<path d="M80.43966921200735,214.11127453123768 A0.3000000000000166,0.3000000000000166 0 1,1 80.33548030540717,213.52038987943033" transform="scale(3.543299873306695,-3.543299873306695)" style="stroke:black; stroke-width:0.2; fill:none"/>
<path d="M82.82216415779386,227.6230748026057 83.90545268610727,227.432061807172" transform="scale(3.543299873306695,-3.543299873306695)" style="stroke:black; stroke-width:0.2; fill:none"/>
<path d="M83.80126377950707,226.84117715536473 A0.3000000000000196,0.3000000000000196 0 0,1 83.90545268610727,227.4320618071721" transform="scale(3.543299873306695,-3.543299873306695)" style="stroke:black; stroke-width:0.2; fill:none"/>
<path d="M83.8012637795071,226.8411771553648 82.71797525119366,227.0321901507983" transform="scale(3.543299873306695,-3.543299873306695)" style="stroke:black; stroke-width:0.2; fill:none"/>
<path d="M82.82216415779385,227.62307480260566 A0.2999999999999991,0.2999999999999991 0 1,1 82.71797525119368,227.03219015079836" transform="scale(3.543299873306695,-3.543299873306695)" style="stroke:black; stroke-width:0.2; fill:none"/>
<path d="M40.53504473394956,115.8178075687951 A0.5,0.5,0,0,0,41.03504473394956,116.3178075687951 A0.5,0.5,0,0,0,41.53504473394956,115.8178075687951 A0.5,0.5,0,0,0,41.03504473394956,115.3178075687951 A0.5,0.5,0,0,0,40.53504473394956,115.8178075687951 Z" transform="scale(3.543299873306695,-3.543299873306695)" style="stroke:black; stroke-width:0.2; fill:none"/>
<path d="M40.53504473394956,118.3578075687951 A0.5,0.5,0,0,0,41.03504473394956,118.8578075687951 A0.5,0.5,0,0,0,41.53504473394956,118.3578075687951 A0.5,0.5,0,0,0,41.03504473394956,117.8578075687951 A0.5,0.5,0,0,0,40.53504473394956,118.3578075687951 Z" transform="scale(3.543299873306695,-3.543299873306695)" style="stroke:black; stroke-width:0.2; fill:none"/>
<path d="M40.53504473394956,120.897807568795 A0.5,0.5,0,0,0,41.03504473394956,121.397807568795 A0.5,0.5,0,0,0,41.53504473394956,120.897807568795 A0.5,0.5,0,0,0,41.03504473394956,120.397807568795 A0.5,0.5,0,0,0,40.53504473394956,120.897807568795 Z" transform="scale(3.543299873306695,-3.543299873306695)" style="stroke:black; stroke-width:0.2; fill:none"/>
<path d="M40.53504473394956,123.437807568795 A0.5,0.5,0,0,0,41.03504473394956,123.937807568795 A0.5,0.5,0,0,0,41.53504473394956,123.437807568795 A0.5,0.5,0,0,0,41.03504473394956,122.937807568795 A0.5,0.5,0,0,0,40.53504473394956,123.437807568795 Z" transform="scale(3.543299873306695,-3.543299873306695)" style="stroke:black; stroke-width:0.2; fill:none"/>
<path d="M99.32911666943657,219.5690591124511 A0.4500000000000001,0.4500000000000001,0,0,0,99.77911666943658,220.0190591124511 A0.4500000000000001,0.4500000000000001,0,0,0,100.22911666943658,219.5690591124511 A0.4500000000000001,0.4500000000000001,0,0,0,99.77911666943658,219.1190591124511 A0.4500000000000001,0.4500000000000001,0,0,0,99.32911666943657,219.5690591124511 Z" transform="scale(3.543299873306695,-3.543299873306695)" style="stroke:black; stroke-width:0.2; fill:none"/>
<path d="M99.04476720346011,216.0806288951185 A0.4500000000000001,0.4500000000000001,0,0,0,99.49476720346011,216.5306288951185 A0.4500000000000001,0.4500000000000001,0,0,0,99.94476720346012,216.0806288951185 A0.4500000000000001,0.4500000000000001,0,0,0,99.49476720346011,215.63062889511852 A0.4500000000000001,0.4500000000000001,0,0,0,99.04476720346011,216.0806288951185 Z" transform="scale(3.543299873306695,-3.543299873306695)" style="stroke:black; stroke-width:0.2; fill:none"/>
<path d="M91.25511458102184,220.7877306965708 A0.4500000000000001,0.4500000000000001,0,0,0,91.70511458102185,221.2377306965708 A0.4500000000000001,0.4500000000000001,0,0,0,92.15511458102185,220.7877306965708 A0.4500000000000001,0.4500000000000001,0,0,0,91.70511458102185,220.33773069657082 A0.4500000000000001,0.4500000000000001,0,0,0,91.25511458102184,220.7877306965708 Z" transform="scale(3.543299873306695,-3.543299873306695)" style="stroke:black; stroke-width:0.2; fill:none"/>
<path d="M90.8140404438282,218.2862749612009 A0.4500000000000001,0.4500000000000001,0,0,0,91.26404044382821,218.73627496120088 A0.4500000000000001,0.4500000000000001,0,0,0,91.71404044382821,218.2862749612009 A0.4500000000000001,0.4500000000000001,0,0,0,91.26404044382821,217.8362749612009 A0.4500000000000001,0.4500000000000001,0,0,0,90.8140404438282,218.2862749612009 Z" transform="scale(3.543299873306695,-3.543299873306695)" style="stroke:black; stroke-width:0.2; fill:none"/>
<path d="M93.53860657633413,219.110780307643 A0.4500000000000001,0.4500000000000001,0,0,0,93.98860657633413,219.560780307643 A0.4500000000000001,0.4500000000000001,0,0,0,94.43860657633414,219.110780307643 A0.4500000000000001,0.4500000000000001,0,0,0,93.98860657633413,218.66078030764302 A0.4500000000000001,0.4500000000000001,0,0,0,93.53860657633413,219.110780307643 Z" transform="scale(3.543299873306695,-3.543299873306695)" style="stroke:black; stroke-width:0.2; fill:none"/>
<path d="M93.0975324391405,216.6093245722731 A0.4500000000000001,0.4500000000000001,0,0,0,93.5475324391405,217.05932457227308 A0.4500000000000001,0.4500000000000001,0,0,0,93.9975324391405,216.6093245722731 A0.4500000000000001,0.4500000000000001,0,0,0,93.5475324391405,216.1593245722731 A0.4500000000000001,0.4500000000000001,0,0,0,93.0975324391405,216.6093245722731 Z" transform="scale(3.543299873306695,-3.543299873306695)" style="stroke:black; stroke-width:0.2; fill:none"/>
<path d="M78.00868625390629,229.3778075687951 77.62145081770905,227.1816862795778" transform="scale(3.543299873306695,-3.543299873306695)" style="stroke:black; stroke-width:0.2; fill:none"/>
<path d="M75.60713195677265,215.7579163446362 74.35871775324111,208.6778075687951" transform="scale(3.543299873306695,-3.543299873306695)" style="stroke:black; stroke-width:0.2; fill:none"/>
<path d="M49.73504473394959,110.6778075687951 49.73504473394959,104.4778075687951" transform="scale(3.543299873306695,-3.543299873306695)" style="stroke:black; stroke-width:0.2; fill:none"/>
<path d="M49.73504473394959,104.4778075687951 69.93504473394958,104.4778075687951" transform="scale(3.543299873306695,-3.543299873306695)" style="stroke:black; stroke-width:0.2; fill:none"/>
<path d="M69.93504473394958,104.4778075687951 69.93504473394958,110.6778075687951" transform="scale(3.543299873306695,-3.543299873306695)" style="stroke:black; stroke-width:0.2; fill:none"/>
<path d="M103.7668426206797,208.177807568795 105.1187598116843,224.7632749064482" transform="scale(3.543299873306695,-3.543299873306695)" style="stroke:black; stroke-width:0.2; fill:none"/>
<path d="M78.00868625390629,229.3778075687951 105.1187598116843,224.7632749064482" transform="scale(3.543299873306695,-3.543299873306695)" style="stroke:black; stroke-width:0.2; fill:none"/>
<path d="M61.48504473394953,118.1778075687952 A0.7500000000000001,0.7500000000000001,0,0,0,62.23504473394953,118.9278075687952 A0.7500000000000001,0.7500000000000001,0,0,0,62.98504473394953,118.1778075687952 A0.7500000000000001,0.7500000000000001,0,0,0,62.23504473394953,117.4278075687952 A0.7500000000000001,0.7500000000000001,0,0,0,61.48504473394953,118.1778075687952 Z" transform="scale(3.543299873306695,-3.543299873306695)" style="stroke:black; stroke-width:0.2; fill:none"/>
<path d="M53.98504473394953,115.9278075687952 A0.7500000000000001,0.7500000000000001,0,0,0,54.73504473394953,116.6778075687952 A0.7500000000000001,0.7500000000000001,0,0,0,55.48504473394953,115.9278075687952 A0.7500000000000001,0.7500000000000001,0,0,0,54.73504473394953,115.1778075687952 A0.7500000000000001,0.7500000000000001,0,0,0,53.98504473394953,115.9278075687952 Z" transform="scale(3.543299873306695,-3.543299873306695)" style="stroke:black; stroke-width:0.2; fill:none"/>
<path d="M164.7850447339495,191.9278075687952 A0.7500000000000001,0.7500000000000001,0,0,0,165.5350447339495,192.6778075687952 A0.7500000000000001,0.7500000000000001,0,0,0,166.2850447339495,191.9278075687952 A0.7500000000000001,0.7500000000000001,0,0,0,165.5350447339495,191.1778075687952 A0.7500000000000001,0.7500000000000001,0,0,0,164.7850447339495,191.9278075687952 Z" transform="scale(3.543299873306695,-3.543299873306695)" style="stroke:black; stroke-width:0.2; fill:none"/>
<path d="M172.2850447339495,194.1778075687952 A0.7500000000000001,0.7500000000000001,0,0,0,173.0350447339495,194.9278075687952 A0.7500000000000001,0.7500000000000001,0,0,0,173.7850447339495,194.1778075687952 A0.7500000000000001,0.7500000000000001,0,0,0,173.0350447339495,193.4278075687952 A0.7500000000000001,0.7500000000000001,0,0,0,172.2850447339495,194.1778075687952 Z" transform="scale(3.543299873306695,-3.543299873306695)" style="stroke:black; stroke-width:0.2; fill:none"/>
<path d="M162.5350447339495,153.9278075687952 A0.7500000000000001,0.7500000000000001,0,0,0,163.2850447339495,154.6778075687952 A0.7500000000000001,0.7500000000000001,0,0,0,164.0350447339495,153.9278075687952 A0.7500000000000001,0.7500000000000001,0,0,0,163.2850447339495,153.1778075687952 A0.7500000000000001,0.7500000000000001,0,0,0,162.5350447339495,153.9278075687952 Z" transform="scale(3.543299873306695,-3.543299873306695)" style="stroke:black; stroke-width:0.2; fill:none"/>
<path d="M170.0350447339495,156.1778075687952 A0.7500000000000001,0.7500000000000001,0,0,0,170.7850447339495,156.9278075687952 A0.7500000000000001,0.7500000000000001,0,0,0,171.5350447339495,156.1778075687952 A0.7500000000000001,0.7500000000000001,0,0,0,170.7850447339495,155.4278075687952 A0.7500000000000001,0.7500000000000001,0,0,0,170.0350447339495,156.1778075687952 Z" transform="scale(3.543299873306695,-3.543299873306695)" style="stroke:black; stroke-width:0.2; fill:none"/>
<path d="M158.0350447339495,134.9278075687952 A0.7500000000000001,0.7500000000000001,0,0,0,158.7850447339495,135.6778075687952 A0.7500000000000001,0.7500000000000001,0,0,0,159.5350447339495,134.9278075687952 A0.7500000000000001,0.7500000000000001,0,0,0,158.7850447339495,134.1778075687952 A0.7500000000000001,0.7500000000000001,0,0,0,158.0350447339495,134.9278075687952 Z" transform="scale(3.543299873306695,-3.543299873306695)" style="stroke:black; stroke-width:0.2; fill:none"/>
<path d="M165.5350447339495,137.1778075687952 A0.7500000000000001,0.7500000000000001,0,0,0,166.2850447339495,137.9278075687952 A0.7500000000000001,0.7500000000000001,0,0,0,167.0350447339495,137.1778075687952 A0.7500000000000001,0.7500000000000001,0,0,0,166.2850447339495,136.4278075687952 A0.7500000000000001,0.7500000000000001,0,0,0,165.5350447339495,137.1778075687952 Z" transform="scale(3.543299873306695,-3.543299873306695)" style="stroke:black; stroke-width:0.2; fill:none"/>
<path d="M160.2850447339496,115.9278075687952 A0.7500000000000001,0.7500000000000001,0,0,0,161.0350447339496,116.6778075687952 A0.7500000000000001,0.7500000000000001,0,0,0,161.7850447339496,115.9278075687952 A0.7500000000000001,0.7500000000000001,0,0,0,161.0350447339496,115.1778075687952 A0.7500000000000001,0.7500000000000001,0,0,0,160.2850447339496,115.9278075687952 Z" transform="scale(3.543299873306695,-3.543299873306695)" style="stroke:black; stroke-width:0.2; fill:none"/>
<path d="M167.7850447339495,118.1778075687952 A0.7500000000000001,0.7500000000000001,0,0,0,168.5350447339495,118.9278075687952 A0.7500000000000001,0.7500000000000001,0,0,0,169.2850447339495,118.1778075687952 A0.7500000000000001,0.7500000000000001,0,0,0,168.5350447339495,117.4278075687952 A0.7500000000000001,0.7500000000000001,0,0,0,167.7850447339495,118.1778075687952 Z" transform="scale(3.543299873306695,-3.543299873306695)" style="stroke:black; stroke-width:0.2; fill:none"/>
<path d="M137.6350447339495,118.1778075687952 A0.7500000000000001,0.7500000000000001,0,0,0,138.3850447339495,118.9278075687952 A0.7500000000000001,0.7500000000000001,0,0,0,139.1350447339495,118.1778075687952 A0.7500000000000001,0.7500000000000001,0,0,0,138.3850447339495,117.4278075687952 A0.7500000000000001,0.7500000000000001,0,0,0,137.6350447339495,118.1778075687952 Z" transform="scale(3.543299873306695,-3.543299873306695)" style="stroke:black; stroke-width:0.2; fill:none"/>
<path d="M130.1350447339496,115.9278075687952 A0.7500000000000001,0.7500000000000001,0,0,0,130.8850447339496,116.6778075687952 A0.7500000000000001,0.7500000000000001,0,0,0,131.6350447339496,115.9278075687952 A0.7500000000000001,0.7500000000000001,0,0,0,130.8850447339496,115.1778075687952 A0.7500000000000001,0.7500000000000001,0,0,0,130.1350447339496,115.9278075687952 Z" transform="scale(3.543299873306695,-3.543299873306695)" style="stroke:black; stroke-width:0.2; fill:none"/>
<path d="M114.2350447339495,118.1778075687952 A0.7500000000000001,0.7500000000000001,0,0,0,114.9850447339495,118.9278075687952 A0.7500000000000001,0.7500000000000001,0,0,0,115.7350447339495,118.1778075687952 A0.7500000000000001,0.7500000000000001,0,0,0,114.9850447339495,117.4278075687952 A0.7500000000000001,0.7500000000000001,0,0,0,114.2350447339495,118.1778075687952 Z" transform="scale(3.543299873306695,-3.543299873306695)" style="stroke:black; stroke-width:0.2; fill:none"/>
<path d="M106.7350447339495,115.9278075687952 A0.7500000000000001,0.7500000000000001,0,0,0,107.4850447339495,116.6778075687952 A0.7500000000000001,0.7500000000000001,0,0,0,108.2350447339495,115.9278075687952 A0.7500000000000001,0.7500000000000001,0,0,0,107.4850447339495,115.1778075687952 A0.7500000000000001,0.7500000000000001,0,0,0,106.7350447339495,115.9278075687952 Z" transform="scale(3.543299873306695,-3.543299873306695)" style="stroke:black; stroke-width:0.2; fill:none"/>
<path d="M90.83504473394954,118.1778075687952 A0.7500000000000001,0.7500000000000001,0,0,0,91.58504473394954,118.9278075687952 A0.7500000000000001,0.7500000000000001,0,0,0,92.33504473394954,118.1778075687952 A0.7500000000000001,0.7500000000000001,0,0,0,91.58504473394954,117.4278075687952 A0.7500000000000001,0.7500000000000001,0,0,0,90.83504473394954,118.1778075687952 Z" transform="scale(3.543299873306695,-3.543299873306695)" style="stroke:black; stroke-width:0.2; fill:none"/>
<path d="M83.33504473394954,115.9278075687952 A0.7500000000000001,0.7500000000000001,0,0,0,84.08504473394954,116.6778075687952 A0.7500000000000001,0.7500000000000001,0,0,0,84.83504473394954,115.9278075687952 A0.7500000000000001,0.7500000000000001,0,0,0,84.08504473394954,115.1778075687952 A0.7500000000000001,0.7500000000000001,0,0,0,83.33504473394954,115.9278075687952 Z" transform="scale(3.543299873306695,-3.543299873306695)" style="stroke:black; stroke-width:0.2; fill:none"/>
<path d="M127.5850447339495,134.9278075687952 A0.7500000000000001,0.7500000000000001,0,0,0,128.3350447339495,135.6778075687952 A0.7500000000000001,0.7500000000000001,0,0,0,129.0850447339495,134.9278075687952 A0.7500000000000001,0.7500000000000001,0,0,0,128.3350447339495,134.1778075687952 A0.7500000000000001,0.7500000000000001,0,0,0,127.5850447339495,134.9278075687952 Z" transform="scale(3.543299873306695,-3.543299873306695)" style="stroke:black; stroke-width:0.2; fill:none"/>
<path d="M135.0850447339495,137.1778075687952 A0.7500000000000001,0.7500000000000001,0,0,0,135.8350447339495,137.9278075687952 A0.7500000000000001,0.7500000000000001,0,0,0,136.5850447339495,137.1778075687952 A0.7500000000000001,0.7500000000000001,0,0,0,135.8350447339495,136.4278075687952 A0.7500000000000001,0.7500000000000001,0,0,0,135.0850447339495,137.1778075687952 Z" transform="scale(3.543299873306695,-3.543299873306695)" style="stroke:black; stroke-width:0.2; fill:none"/>
<path d="M108.3850447339495,134.9278075687952 A0.7500000000000001,0.7500000000000001,0,0,0,109.1350447339495,135.6778075687952 A0.7500000000000001,0.7500000000000001,0,0,0,109.8850447339495,134.9278075687952 A0.7500000000000001,0.7500000000000001,0,0,0,109.1350447339495,134.1778075687952 A0.7500000000000001,0.7500000000000001,0,0,0,108.3850447339495,134.9278075687952 Z" transform="scale(3.543299873306695,-3.543299873306695)" style="stroke:black; stroke-width:0.2; fill:none"/>
<path d="M115.8850447339495,137.1778075687952 A0.7500000000000001,0.7500000000000001,0,0,0,116.6350447339495,137.9278075687952 A0.7500000000000001,0.7500000000000001,0,0,0,117.3850447339495,137.1778075687952 A0.7500000000000001,0.7500000000000001,0,0,0,116.6350447339495,136.4278075687952 A0.7500000000000001,0.7500000000000001,0,0,0,115.8850447339495,137.1778075687952 Z" transform="scale(3.543299873306695,-3.543299873306695)" style="stroke:black; stroke-width:0.2; fill:none"/>
<path d="M89.18504473394952,134.9278075687952 A0.7500000000000001,0.7500000000000001,0,0,0,89.93504473394952,135.6778075687952 A0.7500000000000001,0.7500000000000001,0,0,0,90.68504473394952,134.9278075687952 A0.7500000000000001,0.7500000000000001,0,0,0,89.93504473394952,134.1778075687952 A0.7500000000000001,0.7500000000000001,0,0,0,89.18504473394952,134.9278075687952 Z" transform="scale(3.543299873306695,-3.543299873306695)" style="stroke:black; stroke-width:0.2; fill:none"/>
<path d="M96.68504473394951,137.1778075687952 A0.7500000000000001,0.7500000000000001,0,0,0,97.43504473394951,137.9278075687952 A0.7500000000000001,0.7500000000000001,0,0,0,98.18504473394951,137.1778075687952 A0.7500000000000001,0.7500000000000001,0,0,0,97.43504473394951,136.4278075687952 A0.7500000000000001,0.7500000000000001,0,0,0,96.68504473394951,137.1778075687952 Z" transform="scale(3.543299873306695,-3.543299873306695)" style="stroke:black; stroke-width:0.2; fill:none"/>
<path d="M69.98504473394955,134.9278075687952 A0.7500000000000001,0.7500000000000001,0,0,0,70.73504473394955,135.6778075687952 A0.7500000000000001,0.7500000000000001,0,0,0,71.48504473394955,134.9278075687952 A0.7500000000000001,0.7500000000000001,0,0,0,70.73504473394955,134.1778075687952 A0.7500000000000001,0.7500000000000001,0,0,0,69.98504473394955,134.9278075687952 Z" transform="scale(3.543299873306695,-3.543299873306695)" style="stroke:black; stroke-width:0.2; fill:none"/>
<path d="M77.48504473394955,137.1778075687952 A0.7500000000000001,0.7500000000000001,0,0,0,78.23504473394955,137.9278075687952 A0.7500000000000001,0.7500000000000001,0,0,0,78.98504473394955,137.1778075687952 A0.7500000000000001,0.7500000000000001,0,0,0,78.23504473394955,136.4278075687952 A0.7500000000000001,0.7500000000000001,0,0,0,77.48504473394955,137.1778075687952 Z" transform="scale(3.543299873306695,-3.543299873306695)" style="stroke:black; stroke-width:0.2; fill:none"/>
<path d="M58.28504473394953,137.1778075687952 A0.7500000000000001,0.7500000000000001,0,0,0,59.03504473394953,137.9278075687952 A0.7500000000000001,0.7500000000000001,0,0,0,59.78504473394953,137.1778075687952 A0.7500000000000001,0.7500000000000001,0,0,0,59.03504473394953,136.4278075687952 A0.7500000000000001,0.7500000000000001,0,0,0,58.28504473394953,137.1778075687952 Z" transform="scale(3.543299873306695,-3.543299873306695)" style="stroke:black; stroke-width:0.2; fill:none"/>
<path d="M50.78504473394953,134.9278075687952 A0.7500000000000001,0.7500000000000001,0,0,0,51.53504473394953,135.6778075687952 A0.7500000000000001,0.7500000000000001,0,0,0,52.28504473394953,134.9278075687952 A0.7500000000000001,0.7500000000000001,0,0,0,51.53504473394953,134.1778075687952 A0.7500000000000001,0.7500000000000001,0,0,0,50.78504473394953,134.9278075687952 Z" transform="scale(3.543299873306695,-3.543299873306695)" style="stroke:black; stroke-width:0.2; fill:none"/>
<path d="M144.1950447339495,156.1778075687952 A0.7500000000000001,0.7500000000000001,0,0,0,144.9450447339495,156.9278075687952 A0.7500000000000001,0.7500000000000001,0,0,0,145.6950447339495,156.1778075687952 A0.7500000000000001,0.7500000000000001,0,0,0,144.9450447339495,155.4278075687952 A0.7500000000000001,0.7500000000000001,0,0,0,144.1950447339495,156.1778075687952 Z" transform="scale(3.543299873306695,-3.543299873306695)" style="stroke:black; stroke-width:0.2; fill:none"/>
<path d="M136.6950447339496,153.9278075687952 A0.7500000000000001,0.7500000000000001,0,0,0,137.4450447339496,154.6778075687952 A0.7500000000000001,0.7500000000000001,0,0,0,138.1950447339496,153.9278075687952 A0.7500000000000001,0.7500000000000001,0,0,0,137.4450447339496,153.1778075687952 A0.7500000000000001,0.7500000000000001,0,0,0,136.6950447339496,153.9278075687952 Z" transform="scale(3.543299873306695,-3.543299873306695)" style="stroke:black; stroke-width:0.2; fill:none"/>
<path d="M125.1050447339495,156.1778075687952 A0.7500000000000001,0.7500000000000001,0,0,0,125.8550447339495,156.9278075687952 A0.7500000000000001,0.7500000000000001,0,0,0,126.6050447339495,156.1778075687952 A0.7500000000000001,0.7500000000000001,0,0,0,125.8550447339495,155.4278075687952 A0.7500000000000001,0.7500000000000001,0,0,0,125.1050447339495,156.1778075687952 Z" transform="scale(3.543299873306695,-3.543299873306695)" style="stroke:black; stroke-width:0.2; fill:none"/>
<path d="M117.6050447339495,153.9278075687952 A0.7500000000000001,0.7500000000000001,0,0,0,118.3550447339495,154.6778075687952 A0.7500000000000001,0.7500000000000001,0,0,0,119.1050447339495,153.9278075687952 A0.7500000000000001,0.7500000000000001,0,0,0,118.3550447339495,153.1778075687952 A0.7500000000000001,0.7500000000000001,0,0,0,117.6050447339495,153.9278075687952 Z" transform="scale(3.543299873306695,-3.543299873306695)" style="stroke:black; stroke-width:0.2; fill:none"/>
<path d="M106.0150447339495,156.1778075687952 A0.7500000000000001,0.7500000000000001,0,0,0,106.7650447339495,156.9278075687952 A0.7500000000000001,0.7500000000000001,0,0,0,107.5150447339495,156.1778075687952 A0.7500000000000001,0.7500000000000001,0,0,0,106.7650447339495,155.4278075687952 A0.7500000000000001,0.7500000000000001,0,0,0,106.0150447339495,156.1778075687952 Z" transform="scale(3.543299873306695,-3.543299873306695)" style="stroke:black; stroke-width:0.2; fill:none"/>
<path d="M98.51504473394957,153.9278075687952 A0.7500000000000001,0.7500000000000001,0,0,0,99.26504473394957,154.6778075687952 A0.7500000000000001,0.7500000000000001,0,0,0,100.01504473394957,153.9278075687952 A0.7500000000000001,0.7500000000000001,0,0,0,99.26504473394957,153.1778075687952 A0.7500000000000001,0.7500000000000001,0,0,0,98.51504473394957,153.9278075687952 Z" transform="scale(3.543299873306695,-3.543299873306695)" style="stroke:black; stroke-width:0.2; fill:none"/>
<path d="M86.92504473394955,156.1778075687952 A0.7500000000000001,0.7500000000000001,0,0,0,87.67504473394955,156.9278075687952 A0.7500000000000001,0.7500000000000001,0,0,0,88.42504473394955,156.1778075687952 A0.7500000000000001,0.7500000000000001,0,0,0,87.67504473394955,155.4278075687952 A0.7500000000000001,0.7500000000000001,0,0,0,86.92504473394955,156.1778075687952 Z" transform="scale(3.543299873306695,-3.543299873306695)" style="stroke:black; stroke-width:0.2; fill:none"/>
<path d="M79.42504473394955,153.9278075687952 A0.7500000000000001,0.7500000000000001,0,0,0,80.17504473394955,154.6778075687952 A0.7500000000000001,0.7500000000000001,0,0,0,80.92504473394955,153.9278075687952 A0.7500000000000001,0.7500000000000001,0,0,0,80.17504473394955,153.1778075687952 A0.7500000000000001,0.7500000000000001,0,0,0,79.42504473394955,153.9278075687952 Z" transform="scale(3.543299873306695,-3.543299873306695)" style="stroke:black; stroke-width:0.2; fill:none"/>
<path d="M67.83504473394957,156.1778075687952 A0.7500000000000001,0.7500000000000001,0,0,0,68.58504473394957,156.9278075687952 A0.7500000000000001,0.7500000000000001,0,0,0,69.33504473394957,156.1778075687952 A0.7500000000000001,0.7500000000000001,0,0,0,68.58504473394957,155.4278075687952 A0.7500000000000001,0.7500000000000001,0,0,0,67.83504473394957,156.1778075687952 Z" transform="scale(3.543299873306695,-3.543299873306695)" style="stroke:black; stroke-width:0.2; fill:none"/>
<path d="M60.33504473394957,153.9278075687952 A0.7500000000000001,0.7500000000000001,0,0,0,61.08504473394957,154.6778075687952 A0.7500000000000001,0.7500000000000001,0,0,0,61.83504473394957,153.9278075687952 A0.7500000000000001,0.7500000000000001,0,0,0,61.08504473394957,153.1778075687952 A0.7500000000000001,0.7500000000000001,0,0,0,60.33504473394957,153.9278075687952 Z" transform="scale(3.543299873306695,-3.543299873306695)" style="stroke:black; stroke-width:0.2; fill:none"/>
<path d="M41.24504473394958,153.9278075687952 A0.7500000000000001,0.7500000000000001,0,0,0,41.99504473394958,154.6778075687952 A0.7500000000000001,0.7500000000000001,0,0,0,42.74504473394958,153.9278075687952 A0.7500000000000001,0.7500000000000001,0,0,0,41.99504473394958,153.1778075687952 A0.7500000000000001,0.7500000000000001,0,0,0,41.24504473394958,153.9278075687952 Z" transform="scale(3.543299873306695,-3.543299873306695)" style="stroke:black; stroke-width:0.2; fill:none"/>
<path d="M48.74504473394958,156.1778075687952 A0.7500000000000001,0.7500000000000001,0,0,0,49.49504473394958,156.9278075687952 A0.7500000000000001,0.7500000000000001,0,0,0,50.24504473394958,156.1778075687952 A0.7500000000000001,0.7500000000000001,0,0,0,49.49504473394958,155.4278075687952 A0.7500000000000001,0.7500000000000001,0,0,0,48.74504473394958,156.1778075687952 Z" transform="scale(3.543299873306695,-3.543299873306695)" style="stroke:black; stroke-width:0.2; fill:none"/>
<path d="M169.2850447339495,172.9278075687952 A0.7500000000000001,0.7500000000000001,0,0,0,170.0350447339495,173.6778075687952 A0.7500000000000001,0.7500000000000001,0,0,0,170.7850447339495,172.9278075687952 A0.7500000000000001,0.7500000000000001,0,0,0,170.0350447339495,172.1778075687952 A0.7500000000000001,0.7500000000000001,0,0,0,169.2850447339495,172.9278075687952 Z" transform="scale(3.543299873306695,-3.543299873306695)" style="stroke:black; stroke-width:0.2; fill:none"/>
<path d="M176.7850447339495,175.1778075687952 A0.7500000000000001,0.7500000000000001,0,0,0,177.5350447339495,175.9278075687952 A0.7500000000000001,0.7500000000000001,0,0,0,178.2850447339495,175.1778075687952 A0.7500000000000001,0.7500000000000001,0,0,0,177.5350447339495,174.4278075687952 A0.7500000000000001,0.7500000000000001,0,0,0,176.7850447339495,175.1778075687952 Z" transform="scale(3.543299873306695,-3.543299873306695)" style="stroke:black; stroke-width:0.2; fill:none"/>
<path d="M150.2850447339495,172.9278075687952 A0.7500000000000001,0.7500000000000001,0,0,0,151.0350447339495,173.6778075687952 A0.7500000000000001,0.7500000000000001,0,0,0,151.7850447339495,172.9278075687952 A0.7500000000000001,0.7500000000000001,0,0,0,151.0350447339495,172.1778075687952 A0.7500000000000001,0.7500000000000001,0,0,0,150.2850447339495,172.9278075687952 Z" transform="scale(3.543299873306695,-3.543299873306695)" style="stroke:black; stroke-width:0.2; fill:none"/>
<path d="M157.7850447339495,175.1778075687952 A0.7500000000000001,0.7500000000000001,0,0,0,158.5350447339495,175.9278075687952 A0.7500000000000001,0.7500000000000001,0,0,0,159.2850447339495,175.1778075687952 A0.7500000000000001,0.7500000000000001,0,0,0,158.5350447339495,174.4278075687952 A0.7500000000000001,0.7500000000000001,0,0,0,157.7850447339495,175.1778075687952 Z" transform="scale(3.543299873306695,-3.543299873306695)" style="stroke:black; stroke-width:0.2; fill:none"/>
<path d="M131.2850447339495,172.9278075687952 A0.7500000000000001,0.7500000000000001,0,0,0,132.0350447339495,173.6778075687952 A0.7500000000000001,0.7500000000000001,0,0,0,132.7850447339495,172.9278075687952 A0.7500000000000001,0.7500000000000001,0,0,0,132.0350447339495,172.1778075687952 A0.7500000000000001,0.7500000000000001,0,0,0,131.2850447339495,172.9278075687952 Z" transform="scale(3.543299873306695,-3.543299873306695)" style="stroke:black; stroke-width:0.2; fill:none"/>
<path d="M138.7850447339495,175.1778075687952 A0.7500000000000001,0.7500000000000001,0,0,0,139.5350447339495,175.9278075687952 A0.7500000000000001,0.7500000000000001,0,0,0,140.2850447339495,175.1778075687952 A0.7500000000000001,0.7500000000000001,0,0,0,139.5350447339495,174.4278075687952 A0.7500000000000001,0.7500000000000001,0,0,0,138.7850447339495,175.1778075687952 Z" transform="scale(3.543299873306695,-3.543299873306695)" style="stroke:black; stroke-width:0.2; fill:none"/>
<path d="M112.2850447339495,172.9278075687952 A0.7500000000000001,0.7500000000000001,0,0,0,113.0350447339495,173.6778075687952 A0.7500000000000001,0.7500000000000001,0,0,0,113.7850447339495,172.9278075687952 A0.7500000000000001,0.7500000000000001,0,0,0,113.0350447339495,172.1778075687952 A0.7500000000000001,0.7500000000000001,0,0,0,112.2850447339495,172.9278075687952 Z" transform="scale(3.543299873306695,-3.543299873306695)" style="stroke:black; stroke-width:0.2; fill:none"/>
<path d="M119.7850447339495,175.1778075687952 A0.7500000000000001,0.7500000000000001,0,0,0,120.5350447339495,175.9278075687952 A0.7500000000000001,0.7500000000000001,0,0,0,121.2850447339495,175.1778075687952 A0.7500000000000001,0.7500000000000001,0,0,0,120.5350447339495,174.4278075687952 A0.7500000000000001,0.7500000000000001,0,0,0,119.7850447339495,175.1778075687952 Z" transform="scale(3.543299873306695,-3.543299873306695)" style="stroke:black; stroke-width:0.2; fill:none"/>
<path d="M93.2850447339495,172.9278075687952 A0.7500000000000001,0.7500000000000001,0,0,0,94.0350447339495,173.6778075687952 A0.7500000000000001,0.7500000000000001,0,0,0,94.7850447339495,172.9278075687952 A0.7500000000000001,0.7500000000000001,0,0,0,94.0350447339495,172.1778075687952 A0.7500000000000001,0.7500000000000001,0,0,0,93.2850447339495,172.9278075687952 Z" transform="scale(3.543299873306695,-3.543299873306695)" style="stroke:black; stroke-width:0.2; fill:none"/>
<path d="M100.7850447339495,175.1778075687952 A0.7500000000000001,0.7500000000000001,0,0,0,101.5350447339495,175.9278075687952 A0.7500000000000001,0.7500000000000001,0,0,0,102.2850447339495,175.1778075687952 A0.7500000000000001,0.7500000000000001,0,0,0,101.5350447339495,174.4278075687952 A0.7500000000000001,0.7500000000000001,0,0,0,100.7850447339495,175.1778075687952 Z" transform="scale(3.543299873306695,-3.543299873306695)" style="stroke:black; stroke-width:0.2; fill:none"/>
<path d="M74.28504473394952,172.9278075687952 A0.7500000000000001,0.7500000000000001,0,0,0,75.03504473394952,173.6778075687952 A0.7500000000000001,0.7500000000000001,0,0,0,75.78504473394952,172.9278075687952 A0.7500000000000001,0.7500000000000001,0,0,0,75.03504473394952,172.1778075687952 A0.7500000000000001,0.7500000000000001,0,0,0,74.28504473394952,172.9278075687952 Z" transform="scale(3.543299873306695,-3.543299873306695)" style="stroke:black; stroke-width:0.2; fill:none"/>
<path d="M81.78504473394952,175.1778075687952 A0.7500000000000001,0.7500000000000001,0,0,0,82.53504473394952,175.9278075687952 A0.7500000000000001,0.7500000000000001,0,0,0,83.28504473394952,175.1778075687952 A0.7500000000000001,0.7500000000000001,0,0,0,82.53504473394952,174.4278075687952 A0.7500000000000001,0.7500000000000001,0,0,0,81.78504473394952,175.1778075687952 Z" transform="scale(3.543299873306695,-3.543299873306695)" style="stroke:black; stroke-width:0.2; fill:none"/>
<path d="M55.28504473394952,172.9278075687952 A0.7500000000000001,0.7500000000000001,0,0,0,56.03504473394952,173.6778075687952 A0.7500000000000001,0.7500000000000001,0,0,0,56.78504473394952,172.9278075687952 A0.7500000000000001,0.7500000000000001,0,0,0,56.03504473394952,172.1778075687952 A0.7500000000000001,0.7500000000000001,0,0,0,55.28504473394952,172.9278075687952 Z" transform="scale(3.543299873306695,-3.543299873306695)" style="stroke:black; stroke-width:0.2; fill:none"/>
<path d="M62.78504473394952,175.1778075687952 A0.7500000000000001,0.7500000000000001,0,0,0,63.53504473394952,175.9278075687952 A0.7500000000000001,0.7500000000000001,0,0,0,64.28504473394952,175.1778075687952 A0.7500000000000001,0.7500000000000001,0,0,0,63.53504473394952,174.4278075687952 A0.7500000000000001,0.7500000000000001,0,0,0,62.78504473394952,175.1778075687952 Z" transform="scale(3.543299873306695,-3.543299873306695)" style="stroke:black; stroke-width:0.2; fill:none"/>
<path d="M36.28504473394953,172.9278075687952 A0.7500000000000001,0.7500000000000001,0,0,0,37.03504473394953,173.6778075687952 A0.7500000000000001,0.7500000000000001,0,0,0,37.78504473394953,172.9278075687952 A0.7500000000000001,0.7500000000000001,0,0,0,37.03504473394953,172.1778075687952 A0.7500000000000001,0.7500000000000001,0,0,0,36.28504473394953,172.9278075687952 Z" transform="scale(3.543299873306695,-3.543299873306695)" style="stroke:black; stroke-width:0.2; fill:none"/>
<path d="M43.78504473394953,175.1778075687952 A0.7500000000000001,0.7500000000000001,0,0,0,44.53504473394953,175.9278075687952 A0.7500000000000001,0.7500000000000001,0,0,0,45.28504473394953,175.1778075687952 A0.7500000000000001,0.7500000000000001,0,0,0,44.53504473394953,174.4278075687952 A0.7500000000000001,0.7500000000000001,0,0,0,43.78504473394953,175.1778075687952 Z" transform="scale(3.543299873306695,-3.543299873306695)" style="stroke:black; stroke-width:0.2; fill:none"/>
<path d="M141.2850447339495,191.9278075687951 A0.7500000000000001,0.7500000000000001,0,0,0,142.0350447339495,192.6778075687951 A0.7500000000000001,0.7500000000000001,0,0,0,142.7850447339495,191.9278075687951 A0.7500000000000001,0.7500000000000001,0,0,0,142.0350447339495,191.1778075687951 A0.7500000000000001,0.7500000000000001,0,0,0,141.2850447339495,191.9278075687951 Z" transform="scale(3.543299873306695,-3.543299873306695)" style="stroke:black; stroke-width:0.2; fill:none"/>
<path d="M148.7850447339495,194.1778075687952 A0.7500000000000001,0.7500000000000001,0,0,0,149.5350447339495,194.9278075687952 A0.7500000000000001,0.7500000000000001,0,0,0,150.2850447339495,194.1778075687952 A0.7500000000000001,0.7500000000000001,0,0,0,149.5350447339495,193.4278075687952 A0.7500000000000001,0.7500000000000001,0,0,0,148.7850447339495,194.1778075687952 Z" transform="scale(3.543299873306695,-3.543299873306695)" style="stroke:black; stroke-width:0.2; fill:none"/>
<path d="M122.2850447339495,191.9278075687951 A0.7500000000000001,0.7500000000000001,0,0,0,123.0350447339495,192.6778075687951 A0.7500000000000001,0.7500000000000001,0,0,0,123.7850447339495,191.9278075687951 A0.7500000000000001,0.7500000000000001,0,0,0,123.0350447339495,191.1778075687951 A0.7500000000000001,0.7500000000000001,0,0,0,122.2850447339495,191.9278075687951 Z" transform="scale(3.543299873306695,-3.543299873306695)" style="stroke:black; stroke-width:0.2; fill:none"/>
<path d="M129.7850447339495,194.1778075687952 A0.7500000000000001,0.7500000000000001,0,0,0,130.5350447339495,194.9278075687952 A0.7500000000000001,0.7500000000000001,0,0,0,131.2850447339495,194.1778075687952 A0.7500000000000001,0.7500000000000001,0,0,0,130.5350447339495,193.4278075687952 A0.7500000000000001,0.7500000000000001,0,0,0,129.7850447339495,194.1778075687952 Z" transform="scale(3.543299873306695,-3.543299873306695)" style="stroke:black; stroke-width:0.2; fill:none"/>
<path d="M103.2850447339495,191.9278075687951 A0.7500000000000001,0.7500000000000001,0,0,0,104.0350447339495,192.6778075687951 A0.7500000000000001,0.7500000000000001,0,0,0,104.7850447339495,191.9278075687951 A0.7500000000000001,0.7500000000000001,0,0,0,104.0350447339495,191.1778075687951 A0.7500000000000001,0.7500000000000001,0,0,0,103.2850447339495,191.9278075687951 Z" transform="scale(3.543299873306695,-3.543299873306695)" style="stroke:black; stroke-width:0.2; fill:none"/>
<path d="M110.7850447339495,194.1778075687952 A0.7500000000000001,0.7500000000000001,0,0,0,111.5350447339495,194.9278075687952 A0.7500000000000001,0.7500000000000001,0,0,0,112.2850447339495,194.1778075687952 A0.7500000000000001,0.7500000000000001,0,0,0,111.5350447339495,193.4278075687952 A0.7500000000000001,0.7500000000000001,0,0,0,110.7850447339495,194.1778075687952 Z" transform="scale(3.543299873306695,-3.543299873306695)" style="stroke:black; stroke-width:0.2; fill:none"/>
<path d="M84.28504473394952,191.9278075687951 A0.7500000000000001,0.7500000000000001,0,0,0,85.03504473394952,192.6778075687951 A0.7500000000000001,0.7500000000000001,0,0,0,85.78504473394952,191.9278075687951 A0.7500000000000001,0.7500000000000001,0,0,0,85.03504473394952,191.1778075687951 A0.7500000000000001,0.7500000000000001,0,0,0,84.28504473394952,191.9278075687951 Z" transform="scale(3.543299873306695,-3.543299873306695)" style="stroke:black; stroke-width:0.2; fill:none"/>
<path d="M91.7850447339495,194.1778075687952 A0.7500000000000001,0.7500000000000001,0,0,0,92.5350447339495,194.9278075687952 A0.7500000000000001,0.7500000000000001,0,0,0,93.2850447339495,194.1778075687952 A0.7500000000000001,0.7500000000000001,0,0,0,92.5350447339495,193.4278075687952 A0.7500000000000001,0.7500000000000001,0,0,0,91.7850447339495,194.1778075687952 Z" transform="scale(3.543299873306695,-3.543299873306695)" style="stroke:black; stroke-width:0.2; fill:none"/>
<path d="M65.28504473394953,191.9278075687951 A0.7500000000000001,0.7500000000000001,0,0,0,66.03504473394953,192.6778075687951 A0.7500000000000001,0.7500000000000001,0,0,0,66.78504473394953,191.9278075687951 A0.7500000000000001,0.7500000000000001,0,0,0,66.03504473394953,191.1778075687951 A0.7500000000000001,0.7500000000000001,0,0,0,65.28504473394953,191.9278075687951 Z" transform="scale(3.543299873306695,-3.543299873306695)" style="stroke:black; stroke-width:0.2; fill:none"/>
<path d="M72.78504473394952,194.1778075687952 A0.7500000000000001,0.7500000000000001,0,0,0,73.53504473394952,194.9278075687952 A0.7500000000000001,0.7500000000000001,0,0,0,74.28504473394952,194.1778075687952 A0.7500000000000001,0.7500000000000001,0,0,0,73.53504473394952,193.4278075687952 A0.7500000000000001,0.7500000000000001,0,0,0,72.78504473394952,194.1778075687952 Z" transform="scale(3.543299873306695,-3.543299873306695)" style="stroke:black; stroke-width:0.2; fill:none"/>
<path d="M46.28504473394953,191.9278075687951 A0.7500000000000001,0.7500000000000001,0,0,0,47.03504473394953,192.6778075687951 A0.7500000000000001,0.7500000000000001,0,0,0,47.78504473394953,191.9278075687951 A0.7500000000000001,0.7500000000000001,0,0,0,47.03504473394953,191.1778075687951 A0.7500000000000001,0.7500000000000001,0,0,0,46.28504473394953,191.9278075687951 Z" transform="scale(3.543299873306695,-3.543299873306695)" style="stroke:black; stroke-width:0.2; fill:none"/>
<path d="M53.78504473394953,194.1778075687952 A0.7500000000000001,0.7500000000000001,0,0,0,54.53504473394953,194.9278075687952 A0.7500000000000001,0.7500000000000001,0,0,0,55.28504473394953,194.1778075687952 A0.7500000000000001,0.7500000000000001,0,0,0,54.53504473394953,193.4278075687952 A0.7500000000000001,0.7500000000000001,0,0,0,53.78504473394953,194.1778075687952 Z" transform="scale(3.543299873306695,-3.543299873306695)" style="stroke:black; stroke-width:0.2; fill:none"/>
<path d="M42.83504473394962,196.177807568795 42.83504473394962,192.177807568795" transform="scale(3.543299873306695,-3.543299873306695)" style="stroke:black; stroke-width:0.2; fill:none"/>
<path d="M42.83504473394962,192.177807568795 41.53504473394959,192.177807568795" transform="scale(3.543299873306695,-3.543299873306695)" style="stroke:black; stroke-width:0.2; fill:none"/>
<path d="M41.53504473394959,196.177807568795 42.83504473394962,196.177807568795" transform="scale(3.543299873306695,-3.543299873306695)" style="stroke:black; stroke-width:0.2; fill:none"/>
<path d="M42.83504473394962,204.177807568795 42.83504473394962,200.1778075687951" transform="scale(3.543299873306695,-3.543299873306695)" style="stroke:black; stroke-width:0.2; fill:none"/>
<path d="M42.83504473394962,200.1778075687951 41.53504473394959,200.1778075687951" transform="scale(3.543299873306695,-3.543299873306695)" style="stroke:black; stroke-width:0.2; fill:none"/>
<path d="M41.53504473394959,204.177807568795 42.83504473394962,204.177807568795" transform="scale(3.543299873306695,-3.543299873306695)" style="stroke:black; stroke-width:0.2; fill:none"/>
<path d="M47.4350447339496,146.177807568795 47.4350447339496,142.177807568795" transform="scale(3.543299873306695,-3.543299873306695)" style="stroke:black; stroke-width:0.2; fill:none"/>
<path d="M47.4350447339496,142.177807568795 46.1350447339496,142.177807568795" transform="scale(3.543299873306695,-3.543299873306695)" style="stroke:black; stroke-width:0.2; fill:none"/>
<path d="M46.1350447339496,146.177807568795 47.4350447339496,146.177807568795" transform="scale(3.543299873306695,-3.543299873306695)" style="stroke:black; stroke-width:0.2; fill:none"/>
<path d="M47.4350447339496,139.177807568795 47.4350447339496,135.177807568795" transform="scale(3.543299873306695,-3.543299873306695)" style="stroke:black; stroke-width:0.2; fill:none"/>
<path d="M47.4350447339496,135.177807568795 46.1350447339496,135.177807568795" transform="scale(3.543299873306695,-3.543299873306695)" style="stroke:black; stroke-width:0.2; fill:none"/>
<path d="M46.1350447339496,139.177807568795 47.4350447339496,139.177807568795" transform="scale(3.543299873306695,-3.543299873306695)" style="stroke:black; stroke-width:0.2; fill:none"/>
<path d="M37.9350447339496,158.177807568795 37.9350447339496,154.177807568795" transform="scale(3.543299873306695,-3.543299873306695)" style="stroke:black; stroke-width:0.2; fill:none"/>
<path d="M37.9350447339496,154.177807568795 36.63504473394958,154.177807568795" transform="scale(3.543299873306695,-3.543299873306695)" style="stroke:black; stroke-width:0.2; fill:none"/>
<path d="M36.63504473394958,158.177807568795 37.9350447339496,158.177807568795" transform="scale(3.543299873306695,-3.543299873306695)" style="stroke:black; stroke-width:0.2; fill:none"/>
<path d="M37.9350447339496,165.677807568795 37.9350447339496,161.677807568795" transform="scale(3.543299873306695,-3.543299873306695)" style="stroke:black; stroke-width:0.2; fill:none"/>
<path d="M37.9350447339496,161.677807568795 36.63504473394958,161.677807568795" transform="scale(3.543299873306695,-3.543299873306695)" style="stroke:black; stroke-width:0.2; fill:none"/>
<path d="M36.63504473394958,165.677807568795 37.9350447339496,165.677807568795" transform="scale(3.543299873306695,-3.543299873306695)" style="stroke:black; stroke-width:0.2; fill:none"/>
<path d="M32.9350447339496,177.177807568795 32.9350447339496,173.177807568795" transform="scale(3.543299873306695,-3.543299873306695)" style="stroke:black; stroke-width:0.2; fill:none"/>
<path d="M32.9350447339496,173.177807568795 31.63504473394958,173.177807568795" transform="scale(3.543299873306695,-3.543299873306695)" style="stroke:black; stroke-width:0.2; fill:none"/>
<path d="M31.63504473394958,177.177807568795 32.9350447339496,177.177807568795" transform="scale(3.543299873306695,-3.543299873306695)" style="stroke:black; stroke-width:0.2; fill:none"/>
<path d="M32.9350447339496,184.177807568795 32.9350447339496,180.177807568795" transform="scale(3.543299873306695,-3.543299873306695)" style="stroke:black; stroke-width:0.2; fill:none"/>
<path d="M32.9350447339496,180.177807568795 31.63504473394958,180.177807568795" transform="scale(3.543299873306695,-3.543299873306695)" style="stroke:black; stroke-width:0.2; fill:none"/>
<path d="M31.63504473394958,184.177807568795 32.9350447339496,184.177807568795" transform="scale(3.543299873306695,-3.543299873306695)" style="stroke:black; stroke-width:0.2; fill:none"/>
<path d="M39.23504473394956,110.6778075687951 49.73504473394959,110.6778075687951" transform="scale(3.543299873306695,-3.543299873306695)" style="stroke:black; stroke-width:0.2; fill:none"/>
<path d="M69.93504473394958,110.6778075687951 184.0350447339496,110.677807568795" transform="scale(3.543299873306695,-3.543299873306695)" style="stroke:black; stroke-width:0.2; fill:none"/>
<path d="M44.7350447339496,208.6778075687951 44.7350447339496,205.377807568795" transform="scale(3.543299873306695,-3.543299873306695)" style="stroke:black; stroke-width:0.2; fill:none"/>
<path d="M44.7350447339496,205.377807568795 41.53504473394959,205.377807568795" transform="scale(3.543299873306695,-3.543299873306695)" style="stroke:black; stroke-width:0.2; fill:none"/>
<path d="M74.35871775324111,208.6778075687951 44.7350447339496,208.6778075687951" transform="scale(3.543299873306695,-3.543299873306695)" style="stroke:black; stroke-width:0.2; fill:none"/>
<path d="M54.83504473394957,185.677807568795 31.63504473394958,185.677807568795" transform="scale(3.543299873306695,-3.543299873306695)" style="stroke:black; stroke-width:0.2; fill:none"/>
<path d="M41.53504473394959,190.677807568795 54.83504473394957,190.677807568795" transform="scale(3.543299873306695,-3.543299873306695)" style="stroke:black; stroke-width:0.2; fill:none"/>
<path d="M54.83504473394957,190.677807568795 54.83504473394957,185.677807568795" transform="scale(3.543299873306695,-3.543299873306695)" style="stroke:black; stroke-width:0.2; fill:none"/>
<path d="M184.0350447339496,208.177807568795 103.7668426206797,208.177807568795" transform="scale(3.543299873306695,-3.543299873306695)" style="stroke:black; stroke-width:0.2; fill:none"/>
<path d="M54.83504473394957,166.677807568795 36.63504473394958,166.677807568795" transform="scale(3.543299873306695,-3.543299873306695)" style="stroke:black; stroke-width:0.2; fill:none"/>
<path d="M54.83504473394957,171.677807568795 54.83504473394957,166.677807568795" transform="scale(3.543299873306695,-3.543299873306695)" style="stroke:black; stroke-width:0.2; fill:none"/>
<path d="M31.63504473394958,171.677807568795 54.83504473394957,171.677807568795" transform="scale(3.543299873306695,-3.543299873306695)" style="stroke:black; stroke-width:0.2; fill:none"/>
<path d="M65.3350447339496,128.677807568795 39.23504473394958,128.677807568795" transform="scale(3.543299873306695,-3.543299873306695)" style="stroke:black; stroke-width:0.2; fill:none"/>
<path d="M65.3350447339496,133.677807568795 65.3350447339496,128.677807568795" transform="scale(3.543299873306695,-3.543299873306695)" style="stroke:black; stroke-width:0.2; fill:none"/>
<path d="M46.1350447339496,133.677807568795 65.3350447339496,133.677807568795" transform="scale(3.543299873306695,-3.543299873306695)" style="stroke:black; stroke-width:0.2; fill:none"/>
<path d="M65.33504473394954,147.677807568795 46.1350447339496,147.677807568795" transform="scale(3.543299873306695,-3.543299873306695)" style="stroke:black; stroke-width:0.2; fill:none"/>
<path d="M65.33504473394954,152.677807568795 65.33504473394954,147.677807568795" transform="scale(3.543299873306695,-3.543299873306695)" style="stroke:black; stroke-width:0.2; fill:none"/>
<path d="M36.63504473394951,152.6778075687951 65.33504473394954,152.677807568795" transform="scale(3.543299873306695,-3.543299873306695)" style="stroke:black; stroke-width:0.2; fill:none"/>
<path d="M41.53504473394959,204.177807568795 41.53504473394959,205.377807568795" transform="scale(3.543299873306695,-3.543299873306695)" style="stroke:black; stroke-width:0.2; fill:none"/>
<path d="M41.53504473394959,190.677807568795 41.53504473394959,192.177807568795" transform="scale(3.543299873306695,-3.543299873306695)" style="stroke:black; stroke-width:0.2; fill:none"/>
<path d="M31.63504473394958,184.177807568795 31.63504473394958,185.677807568795" transform="scale(3.543299873306695,-3.543299873306695)" style="stroke:black; stroke-width:0.2; fill:none"/>
<path d="M31.63504473394958,171.677807568795 31.63504473394958,173.177807568795" transform="scale(3.543299873306695,-3.543299873306695)" style="stroke:black; stroke-width:0.2; fill:none"/>
<path d="M39.23504473394956,110.6778075687951 39.23504473394958,128.677807568795" transform="scale(3.543299873306695,-3.543299873306695)" style="stroke:black; stroke-width:0.2; fill:none"/>
<path d="M41.53504473394959,196.177807568795 41.53504473394959,200.1778075687951" transform="scale(3.543299873306695,-3.543299873306695)" style="stroke:black; stroke-width:0.2; fill:none"/>
<path d="M31.63504473394958,177.177807568795 31.63504473394958,180.177807568795" transform="scale(3.543299873306695,-3.543299873306695)" style="stroke:black; stroke-width:0.2; fill:none"/>
<path d="M36.63504473394958,165.677807568795 36.63504473394958,166.677807568795" transform="scale(3.543299873306695,-3.543299873306695)" style="stroke:black; stroke-width:0.2; fill:none"/>
<path d="M36.63504473394958,158.177807568795 36.63504473394958,161.677807568795" transform="scale(3.543299873306695,-3.543299873306695)" style="stroke:black; stroke-width:0.2; fill:none"/>
<path d="M36.63504473394951,152.6778075687951 36.63504473394958,154.177807568795" transform="scale(3.543299873306695,-3.543299873306695)" style="stroke:black; stroke-width:0.2; fill:none"/>
<path d="M46.1350447339496,146.177807568795 46.1350447339496,147.677807568795" transform="scale(3.543299873306695,-3.543299873306695)" style="stroke:black; stroke-width:0.2; fill:none"/>
<path d="M46.1350447339496,139.177807568795 46.1350447339496,142.177807568795" transform="scale(3.543299873306695,-3.543299873306695)" style="stroke:black; stroke-width:0.2; fill:none"/>
<path d="M46.1350447339496,133.677807568795 46.1350447339496,135.177807568795" transform="scale(3.543299873306695,-3.543299873306695)" style="stroke:black; stroke-width:0.2; fill:none"/>
<path d="M184.0350447339496,208.177807568795 184.0350447339496,110.677807568795" transform="scale(3.543299873306695,-3.543299873306695)" style="stroke:black; stroke-width:0.2; fill:none"/>
<path d="M66.43504473394961,187.677807568795 A2.1,2.1,0,0,0,68.5350447339496,189.777807568795 A2.1,2.1,0,0,0,70.6350447339496,187.677807568795 A2.1,2.1,0,0,0,68.5350447339496,185.577807568795 A2.1,2.1,0,0,0,66.43504473394961,187.677807568795 Z" transform="scale(3.543299873306695,-3.543299873306695)" style="stroke:black; stroke-width:0.2; fill:none"/>
<path d="M81.23504473394961,149.6778075687949 A2.1,2.1,0,0,0,83.3350447339496,151.77780756879488 A2.1,2.1,0,0,0,85.4350447339496,149.6778075687949 A2.1,2.1,0,0,0,83.3350447339496,147.5778075687949 A2.1,2.1,0,0,0,81.23504473394961,149.6778075687949 Z" transform="scale(3.543299873306695,-3.543299873306695)" style="stroke:black; stroke-width:0.2; fill:none"/>
<path d="M119.6350447339496,149.6778075687949 A2.1,2.1,0,0,0,121.7350447339496,151.77780756879488 A2.1,2.1,0,0,0,123.83504473394959,149.6778075687949 A2.1,2.1,0,0,0,121.7350447339496,147.5778075687949 A2.1,2.1,0,0,0,119.6350447339496,149.6778075687949 Z" transform="scale(3.543299873306695,-3.543299873306695)" style="stroke:black; stroke-width:0.2; fill:none"/>
<path d="M176.9350447339496,159.677807568795 A2.1,2.1,0,0,0,179.0350447339496,161.777807568795 A2.1,2.1,0,0,0,181.1350447339496,159.677807568795 A2.1,2.1,0,0,0,179.0350447339496,157.577807568795 A2.1,2.1,0,0,0,176.9350447339496,159.677807568795 Z" transform="scale(3.543299873306695,-3.543299873306695)" style="stroke:black; stroke-width:0.2; fill:none"/>
<path d="M133.4350447339495,188.677807568795 A2.1,2.1,0,0,0,135.5350447339495,190.777807568795 A2.1,2.1,0,0,0,137.63504473394948,188.677807568795 A2.1,2.1,0,0,0,135.5350447339495,186.577807568795 A2.1,2.1,0,0,0,133.4350447339495,188.677807568795 Z" transform="scale(3.543299873306695,-3.543299873306695)" style="stroke:black; stroke-width:0.2; fill:none"/>
<path d="M162.0350447339496,121.677807568795 A2,2,0,0,0,164.0350447339496,123.677807568795 A2,2,0,0,0,166.0350447339496,121.677807568795 A2,2,0,0,0,164.0350447339496,119.677807568795 A2,2,0,0,0,162.0350447339496,121.677807568795 Z" transform="scale(3.543299873306695,-3.543299873306695)" style="stroke:black; stroke-width:0.2; fill:none"/>
<path d="M131.8850447339496,121.677807568795 A2,2,0,0,0,133.8850447339496,123.677807568795 A2,2,0,0,0,135.8850447339496,121.677807568795 A2,2,0,0,0,133.8850447339496,119.677807568795 A2,2,0,0,0,131.8850447339496,121.677807568795 Z" transform="scale(3.543299873306695,-3.543299873306695)" style="stroke:black; stroke-width:0.2; fill:none"/>
<path d="M129.3350447339496,140.677807568795 A2,2,0,0,0,131.3350447339496,142.677807568795 A2,2,0,0,0,133.3350447339496,140.677807568795 A2,2,0,0,0,131.3350447339496,138.677807568795 A2,2,0,0,0,129.3350447339496,140.677807568795 Z" transform="scale(3.543299873306695,-3.543299873306695)" style="stroke:black; stroke-width:0.2; fill:none"/>
<path d="M159.7850447339496,140.677807568795 A2,2,0,0,0,161.7850447339496,142.677807568795 A2,2,0,0,0,163.7850447339496,140.677807568795 A2,2,0,0,0,161.7850447339496,138.677807568795 A2,2,0,0,0,159.7850447339496,140.677807568795 Z" transform="scale(3.543299873306695,-3.543299873306695)" style="stroke:black; stroke-width:0.2; fill:none"/>
<path d="M164.2850447339496,159.677807568795 A2,2,0,0,0,166.2850447339496,161.677807568795 A2,2,0,0,0,168.2850447339496,159.677807568795 A2,2,0,0,0,166.2850447339496,157.677807568795 A2,2,0,0,0,164.2850447339496,159.677807568795 Z" transform="scale(3.543299873306695,-3.543299873306695)" style="stroke:black; stroke-width:0.2; fill:none"/>
<path d="M138.4450447339495,159.677807568795 A2,2,0,0,0,140.4450447339495,161.677807568795 A2,2,0,0,0,142.4450447339495,159.677807568795 A2,2,0,0,0,140.4450447339495,157.677807568795 A2,2,0,0,0,138.4450447339495,159.677807568795 Z" transform="scale(3.543299873306695,-3.543299873306695)" style="stroke:black; stroke-width:0.2; fill:none"/>
<path d="M171.0350447339495,178.677807568795 A2,2,0,0,0,173.0350447339495,180.677807568795 A2,2,0,0,0,175.0350447339495,178.677807568795 A2,2,0,0,0,173.0350447339495,176.677807568795 A2,2,0,0,0,171.0350447339495,178.677807568795 Z" transform="scale(3.543299873306695,-3.543299873306695)" style="stroke:black; stroke-width:0.2; fill:none"/>
<path d="M166.5350447339495,197.6778075687951 A2,2,0,0,0,168.5350447339495,199.6778075687951 A2,2,0,0,0,170.5350447339495,197.6778075687951 A2,2,0,0,0,168.5350447339495,195.6778075687951 A2,2,0,0,0,166.5350447339495,197.6778075687951 Z" transform="scale(3.543299873306695,-3.543299873306695)" style="stroke:black; stroke-width:0.2; fill:none"/>
<path d="M143.0350447339495,197.677807568795 A2,2,0,0,0,145.0350447339495,199.677807568795 A2,2,0,0,0,147.0350447339495,197.677807568795 A2,2,0,0,0,145.0350447339495,195.677807568795 A2,2,0,0,0,143.0350447339495,197.677807568795 Z" transform="scale(3.543299873306695,-3.543299873306695)" style="stroke:black; stroke-width:0.2; fill:none"/>
<path d="M124.0350447339496,197.677807568795 A2,2,0,0,0,126.0350447339496,199.677807568795 A2,2,0,0,0,128.0350447339496,197.677807568795 A2,2,0,0,0,126.0350447339496,195.677807568795 A2,2,0,0,0,124.0350447339496,197.677807568795 Z" transform="scale(3.543299873306695,-3.543299873306695)" style="stroke:black; stroke-width:0.2; fill:none"/>
<path d="M105.0350447339496,197.677807568795 A2,2,0,0,0,107.0350447339496,199.677807568795 A2,2,0,0,0,109.0350447339496,197.677807568795 A2,2,0,0,0,107.0350447339496,195.677807568795 A2,2,0,0,0,105.0350447339496,197.677807568795 Z" transform="scale(3.543299873306695,-3.543299873306695)" style="stroke:black; stroke-width:0.2; fill:none"/>
<path d="M86.03504473394959,197.677807568795 A2,2,0,0,0,88.03504473394959,199.677807568795 A2,2,0,0,0,90.03504473394959,197.677807568795 A2,2,0,0,0,88.03504473394959,195.677807568795 A2,2,0,0,0,86.03504473394959,197.677807568795 Z" transform="scale(3.543299873306695,-3.543299873306695)" style="stroke:black; stroke-width:0.2; fill:none"/>
<path d="M67.03504473394959,197.677807568795 A2,2,0,0,0,69.03504473394959,199.677807568795 A2,2,0,0,0,71.03504473394959,197.677807568795 A2,2,0,0,0,69.03504473394959,195.677807568795 A2,2,0,0,0,67.03504473394959,197.677807568795 Z" transform="scale(3.543299873306695,-3.543299873306695)" style="stroke:black; stroke-width:0.2; fill:none"/>
<path d="M48.03504473394958,197.677807568795 A2,2,0,0,0,50.03504473394958,199.677807568795 A2,2,0,0,0,52.03504473394958,197.677807568795 A2,2,0,0,0,50.03504473394958,195.677807568795 A2,2,0,0,0,48.03504473394958,197.677807568795 Z" transform="scale(3.543299873306695,-3.543299873306695)" style="stroke:black; stroke-width:0.2; fill:none"/>
<path d="M152.0350447339496,178.677807568795 A2,2,0,0,0,154.0350447339496,180.677807568795 A2,2,0,0,0,156.0350447339496,178.677807568795 A2,2,0,0,0,154.0350447339496,176.677807568795 A2,2,0,0,0,152.0350447339496,178.677807568795 Z" transform="scale(3.543299873306695,-3.543299873306695)" style="stroke:black; stroke-width:0.2; fill:none"/>
<path d="M133.0350447339496,178.677807568795 A2,2,0,0,0,135.0350447339496,180.677807568795 A2,2,0,0,0,137.0350447339496,178.677807568795 A2,2,0,0,0,135.0350447339496,176.677807568795 A2,2,0,0,0,133.0350447339496,178.677807568795 Z" transform="scale(3.543299873306695,-3.543299873306695)" style="stroke:black; stroke-width:0.2; fill:none"/>
<path d="M114.0350447339496,178.677807568795 A2,2,0,0,0,116.0350447339496,180.677807568795 A2,2,0,0,0,118.0350447339496,178.677807568795 A2,2,0,0,0,116.0350447339496,176.677807568795 A2,2,0,0,0,114.0350447339496,178.677807568795 Z" transform="scale(3.543299873306695,-3.543299873306695)" style="stroke:black; stroke-width:0.2; fill:none"/>
<path d="M95.03504473394959,178.677807568795 A2,2,0,0,0,97.03504473394959,180.677807568795 A2,2,0,0,0,99.03504473394959,178.677807568795 A2,2,0,0,0,97.03504473394959,176.677807568795 A2,2,0,0,0,95.03504473394959,178.677807568795 Z" transform="scale(3.543299873306695,-3.543299873306695)" style="stroke:black; stroke-width:0.2; fill:none"/>
<path d="M76.03504473394959,178.677807568795 A2,2,0,0,0,78.03504473394959,180.677807568795 A2,2,0,0,0,80.03504473394959,178.677807568795 A2,2,0,0,0,78.03504473394959,176.677807568795 A2,2,0,0,0,76.03504473394959,178.677807568795 Z" transform="scale(3.543299873306695,-3.543299873306695)" style="stroke:black; stroke-width:0.2; fill:none"/>
<path d="M57.0350447339496,178.677807568795 A2,2,0,0,0,59.0350447339496,180.677807568795 A2,2,0,0,0,61.0350447339496,178.677807568795 A2,2,0,0,0,59.0350447339496,176.677807568795 A2,2,0,0,0,57.0350447339496,178.677807568795 Z" transform="scale(3.543299873306695,-3.543299873306695)" style="stroke:black; stroke-width:0.2; fill:none"/>
<path d="M38.03504473394958,178.677807568795 A2,2,0,0,0,40.03504473394958,180.677807568795 A2,2,0,0,0,42.03504473394958,178.677807568795 A2,2,0,0,0,40.03504473394958,176.677807568795 A2,2,0,0,0,38.03504473394958,178.677807568795 Z" transform="scale(3.543299873306695,-3.543299873306695)" style="stroke:black; stroke-width:0.2; fill:none"/>
<path d="M119.3550447339496,159.677807568795 A2,2,0,0,0,121.3550447339496,161.677807568795 A2,2,0,0,0,123.3550447339496,159.677807568795 A2,2,0,0,0,121.3550447339496,157.677807568795 A2,2,0,0,0,119.3550447339496,159.677807568795 Z" transform="scale(3.543299873306695,-3.543299873306695)" style="stroke:black; stroke-width:0.2; fill:none"/>
<path d="M100.2650447339495,159.677807568795 A2,2,0,0,0,102.2650447339495,161.677807568795 A2,2,0,0,0,104.2650447339495,159.677807568795 A2,2,0,0,0,102.2650447339495,157.677807568795 A2,2,0,0,0,100.2650447339495,159.677807568795 Z" transform="scale(3.543299873306695,-3.543299873306695)" style="stroke:black; stroke-width:0.2; fill:none"/>
<path d="M81.1750447339496,159.677807568795 A2,2,0,0,0,83.1750447339496,161.677807568795 A2,2,0,0,0,85.1750447339496,159.677807568795 A2,2,0,0,0,83.1750447339496,157.677807568795 A2,2,0,0,0,81.1750447339496,159.677807568795 Z" transform="scale(3.543299873306695,-3.543299873306695)" style="stroke:black; stroke-width:0.2; fill:none"/>
<path d="M62.085044733949616,159.677807568795 A2,2,0,0,0,64.08504473394962,161.677807568795 A2,2,0,0,0,66.08504473394962,159.677807568795 A2,2,0,0,0,64.08504473394962,157.677807568795 A2,2,0,0,0,62.085044733949616,159.677807568795 Z" transform="scale(3.543299873306695,-3.543299873306695)" style="stroke:black; stroke-width:0.2; fill:none"/>
<path d="M42.99504473394964,159.677807568795 A2,2,0,0,0,44.99504473394964,161.677807568795 A2,2,0,0,0,46.99504473394964,159.677807568795 A2,2,0,0,0,44.99504473394964,157.677807568795 A2,2,0,0,0,42.99504473394964,159.677807568795 Z" transform="scale(3.543299873306695,-3.543299873306695)" style="stroke:black; stroke-width:0.2; fill:none"/>
<path d="M110.1350447339496,140.677807568795 A2,2,0,0,0,112.1350447339496,142.677807568795 A2,2,0,0,0,114.1350447339496,140.677807568795 A2,2,0,0,0,112.1350447339496,138.677807568795 A2,2,0,0,0,110.1350447339496,140.677807568795 Z" transform="scale(3.543299873306695,-3.543299873306695)" style="stroke:black; stroke-width:0.2; fill:none"/>
<path d="M90.9350447339496,140.677807568795 A2,2,0,0,0,92.9350447339496,142.677807568795 A2,2,0,0,0,94.9350447339496,140.677807568795 A2,2,0,0,0,92.9350447339496,138.677807568795 A2,2,0,0,0,90.9350447339496,140.677807568795 Z" transform="scale(3.543299873306695,-3.543299873306695)" style="stroke:black; stroke-width:0.2; fill:none"/>
<path d="M71.7350447339496,140.677807568795 A2,2,0,0,0,73.7350447339496,142.677807568795 A2,2,0,0,0,75.7350447339496,140.677807568795 A2,2,0,0,0,73.7350447339496,138.677807568795 A2,2,0,0,0,71.7350447339496,140.677807568795 Z" transform="scale(3.543299873306695,-3.543299873306695)" style="stroke:black; stroke-width:0.2; fill:none"/>
<path d="M52.5350447339496,140.677807568795 A2,2,0,0,0,54.5350447339496,142.677807568795 A2,2,0,0,0,56.5350447339496,140.677807568795 A2,2,0,0,0,54.5350447339496,138.677807568795 A2,2,0,0,0,52.5350447339496,140.677807568795 Z" transform="scale(3.543299873306695,-3.543299873306695)" style="stroke:black; stroke-width:0.2; fill:none"/>
<path d="M55.73504473394959,121.677807568795 A2,2,0,0,0,57.73504473394959,123.677807568795 A2,2,0,0,0,59.73504473394959,121.677807568795 A2,2,0,0,0,57.73504473394959,119.677807568795 A2,2,0,0,0,55.73504473394959,121.677807568795 Z" transform="scale(3.543299873306695,-3.543299873306695)" style="stroke:black; stroke-width:0.2; fill:none"/>
<path d="M108.4850447339496,121.677807568795 A2,2,0,0,0,110.4850447339496,123.677807568795 A2,2,0,0,0,112.4850447339496,121.677807568795 A2,2,0,0,0,110.4850447339496,119.677807568795 A2,2,0,0,0,108.4850447339496,121.677807568795 Z" transform="scale(3.543299873306695,-3.543299873306695)" style="stroke:black; stroke-width:0.2; fill:none"/>
<path d="M85.08504473394957,121.677807568795 A2,2,0,0,0,87.08504473394957,123.677807568795 A2,2,0,0,0,89.08504473394957,121.677807568795 A2,2,0,0,0,87.08504473394957,119.677807568795 A2,2,0,0,0,85.08504473394957,121.677807568795 Z" transform="scale(3.543299873306695,-3.543299873306695)" style="stroke:black; stroke-width:0.2; fill:none"/>
<path d="M150.2962399085531,135.9617696205215 A2.371708245126285,2.371708245126285 0 1,1 145.7962399085531,135.9617696205215" transform="scale(3.543299873306695,-3.543299873306695)" style="stroke:black; stroke-width:0.2; fill:none"/>
<path d="M145.7962399085531,135.9617696205215 147.2962399085531,132.9617696205215" transform="scale(3.543299873306695,-3.543299873306695)" style="stroke:black; stroke-width:0.2; fill:none"/>
<path d="M150.2962399085531,135.9617696205215 148.7962399085531,132.9617696205215" transform="scale(3.543299873306695,-3.543299873306695)" style="stroke:black; stroke-width:0.2; fill:none"/>
<path d="M147.2962399085531,132.9617696205214 A0.8499999999999893,0.8499999999999893 0 0,1 148.7962399085531,132.9617696205214" transform="scale(3.543299873306695,-3.543299873306695)" style="stroke:black; stroke-width:0.2; fill:none"/>
<path d="M145.75,124.1217082451263 A2.371708245126285,2.371708245126285 0 1,1 150.25,124.1217082451263" transform="scale(3.543299873306695,-3.543299873306695)" style="stroke:black; stroke-width:0.2; fill:none"/>
<path d="M150.25,124.1217082451263 148.75,127.1217082451263" transform="scale(3.543299873306695,-3.543299873306695)" style="stroke:black; stroke-width:0.2; fill:none"/>
<path d="M145.75,124.1217082451263 147.25,127.1217082451263" transform="scale(3.543299873306695,-3.543299873306695)" style="stroke:black; stroke-width:0.2; fill:none"/>
<path d="M148.75,127.12170824512627 A0.8499999999999893,0.8499999999999893 0 0,1 147.25,127.12170824512627" transform="scale(3.543299873306695,-3.543299873306695)" style="stroke:black; stroke-width:0.2; fill:none"/>
<path d="M142,132.5 A2.371708245126285,2.371708245126285 0 1,1 142,128" transform="scale(3.543299873306695,-3.543299873306695)" style="stroke:black; stroke-width:0.2; fill:none"/>
<path d="M142,128 145,129.5" transform="scale(3.543299873306695,-3.543299873306695)" style="stroke:black; stroke-width:0.2; fill:none"/>
<path d="M142,132.5 145,131" transform="scale(3.543299873306695,-3.543299873306695)" style="stroke:black; stroke-width:0.2; fill:none"/>
<path d="M144.99999999999997,129.5 A0.8499999999999893,0.8499999999999893 0 0,1 144.99999999999997,131" transform="scale(3.543299873306695,-3.543299873306695)" style="stroke:black; stroke-width:0.2; fill:none"/>
<path d="M154,128 A2.371708245126285,2.371708245126285 0 1,1 154,132.5" transform="scale(3.543299873306695,-3.543299873306695)" style="stroke:black; stroke-width:0.2; fill:none"/>
<path d="M154,132.5 151,131" transform="scale(3.543299873306695,-3.543299873306695)" style="stroke:black; stroke-width:0.2; fill:none"/>
<path d="M154,128 151,129.5" transform="scale(3.543299873306695,-3.543299873306695)" style="stroke:black; stroke-width:0.2; fill:none"/>
<path d="M151.00000000000003,131 A0.8499999999999893,0.8499999999999893 0 0,1 151.00000000000003,129.5" transform="scale(3.543299873306695,-3.543299873306695)" style="stroke:black; stroke-width:0.2; fill:none"/>
<path d="M76.99928425213024,119.93074276919423 A0.8499999999999893,0.8499999999999893 0 0,1 75.93862408035041,118.8700825974144" transform="scale(3.543299873306695,-3.543299873306695)" style="stroke:black; stroke-width:0.2; fill:none"/>
<path d="M68.42328690805013,118.96079856725595 A2.371708245126285,2.371708245126285 0 1,1 71.60526742338959,115.77881805191649" transform="scale(3.543299873306695,-3.543299873306695)" style="stroke:black; stroke-width:0.2; fill:none"/>
<path d="M71.6052674233896,115.7788180519164 72.66592759516944,118.9607985672559" transform="scale(3.543299873306695,-3.543299873306695)" style="stroke:black; stroke-width:0.2; fill:none"/>
<path d="M68.42328690805014,118.9607985672559 71.6052674233896,120.0214587390357" transform="scale(3.543299873306695,-3.543299873306695)" style="stroke:black; stroke-width:0.2; fill:none"/>
<path d="M72.6659275951694,118.96079856725589 A0.8499999999999893,0.8499999999999893 0 0,1 71.60526742338958,120.02145873903572" transform="scale(3.543299873306695,-3.543299873306695)" style="stroke:black; stroke-width:0.2; fill:none"/>
<path d="M80.09054879762817,124.26409942615506 A2.371708245126285,2.371708245126285 0 1,1 76.90856828228871,127.44607994149452" transform="scale(3.543299873306695,-3.543299873306695)" style="stroke:black; stroke-width:0.2; fill:none"/>
<path d="M76.9085682822887,127.4460799414945 75.84790811050887,124.264099426155" transform="scale(3.543299873306695,-3.543299873306695)" style="stroke:black; stroke-width:0.2; fill:none"/>
<path d="M80.09054879762819,124.264099426155 76.9085682822887,123.2034392543752" transform="scale(3.543299873306695,-3.543299873306695)" style="stroke:black; stroke-width:0.2; fill:none"/>
<path d="M75.8479081105089,124.26409942615501 A0.8499999999999893,0.8499999999999893 0 0,1 76.90856828228873,123.20343925437518" transform="scale(3.543299873306695,-3.543299873306695)" style="stroke:black; stroke-width:0.2; fill:none"/>
<path d="M71.84177363216219,127.27496683852061 A2.371708245126285,2.371708245126285 0 1,1 68.65979311682273,124.09298632318115" transform="scale(3.543299873306695,-3.543299873306695)" style="stroke:black; stroke-width:0.2; fill:none"/>
<path d="M68.65979311682271,124.0929863231812 71.84177363216217,123.0323261514013" transform="scale(3.543299873306695,-3.543299873306695)" style="stroke:black; stroke-width:0.2; fill:none"/>
<path d="M71.84177363216217,127.2749668385206 72.902433803942,124.0929863231812" transform="scale(3.543299873306695,-3.543299873306695)" style="stroke:black; stroke-width:0.2; fill:none"/>
<path d="M71.84177363216223,123.03232615140128 A0.8499999999999893,0.8499999999999893 0 0,1 72.90243380394206,124.09298632318111" transform="scale(3.543299873306695,-3.543299873306695)" style="stroke:black; stroke-width:0.2; fill:none"/>
<path d="M76.99928425213022,115.68810208207488 A2.371708245126285,2.371708245126285 0 1,1 80.18126476746968,118.87008259741434" transform="scale(3.543299873306695,-3.543299873306695)" style="stroke:black; stroke-width:0.2; fill:none"/>
<path d="M80.1812647674697,118.8700825974144 76.99928425213021,119.9307427691942" transform="scale(3.543299873306695,-3.543299873306695)" style="stroke:black; stroke-width:0.2; fill:none"/>
<path d="M76.99928425213021,115.6881020820749 75.93862408035041,118.8700825974144" transform="scale(3.543299873306695,-3.543299873306695)" style="stroke:black; stroke-width:0.2; fill:none"/>
</svg>
