<?xml version="1.0" encoding="UTF-8" standalone="no"?>
<!-- Generator: Adobe Illustrator 16.0.0, SVG Export Plug-In . SVG Version: 6.00 Build 0)  -->

<svg
   xmlns:dc="http://purl.org/dc/elements/1.1/"
   xmlns:cc="http://creativecommons.org/ns#"
   xmlns:rdf="http://www.w3.org/1999/02/22-rdf-syntax-ns#"
   xmlns:svg="http://www.w3.org/2000/svg"
   xmlns="http://www.w3.org/2000/svg"
   xmlns:sodipodi="http://sodipodi.sourceforge.net/DTD/sodipodi-0.dtd"
   xmlns:inkscape="http://www.inkscape.org/namespaces/inkscape"
   version="1.1"
   id="レイヤー_1"
   x="0px"
   y="0px"
   width="10cm"
   height="10cm"
   viewBox="0 0 354.33071 354.33072"
   enable-background="new 0 0 283.464 425.197"
   xml:space="preserve"
   inkscape:version="0.91 r13725"
   sodipodi:docname="精度確認用.svg"><metadata
   id="metadata373"><rdf:RDF><cc:Work
       rdf:about=""><dc:format>image/svg+xml</dc:format><dc:type
         rdf:resource="http://purl.org/dc/dcmitype/StillImage" /><dc:title /></cc:Work></rdf:RDF></metadata><defs
   id="defs371" /><sodipodi:namedview
   pagecolor="#ffffff"
   bordercolor="#666666"
   borderopacity="1"
   objecttolerance="10"
   gridtolerance="10"
   guidetolerance="10"
   inkscape:pageopacity="0"
   inkscape:pageshadow="2"
   inkscape:window-width="1366"
   inkscape:window-height="748"
   id="namedview369"
   showgrid="false"
   inkscape:zoom="1.28"
   inkscape:cx="115.80201"
   inkscape:cy="153.61833"
   inkscape:window-x="1358"
   inkscape:window-y="-8"
   inkscape:window-maximized="1"
   inkscape:current-layer="レイヤー_1"
   units="cm" />


























<path
   style="fill:none;stroke:#00ff00;stroke-width:1.41729999;stroke-miterlimit:10;stroke-opacity:1"
   d="m 148.9201,39.39753 -124.999997,0"
   id="line247" /><path
   style="fill:none;stroke:#00ff00;stroke-width:1.41729999;stroke-miterlimit:10;stroke-opacity:1"
   d="M 148.90057,37.215523 23.920103,39.39753"
   id="line249" /><path
   style="fill:none;stroke:#00ff00;stroke-width:1.41729999;stroke-miterlimit:10;stroke-opacity:1"
   d="m 148.9201,55.83551 -124.999997,0"
   id="line251" /><path
   style="fill:none;stroke:#00ff00;stroke-width:1.41729999;stroke-miterlimit:10;stroke-opacity:1"
   d="M 148.84198,51.46949 23.920103,55.833504"
   id="line253" /><path
   style="fill:none;stroke:#00ff00;stroke-width:1.41729999;stroke-miterlimit:10;stroke-opacity:1"
   d="M 148.74823,66.163521 23.920103,72.704567"
   id="line255" /><path
   style="fill:none;stroke:#00ff00;stroke-width:1.41729999;stroke-miterlimit:10;stroke-opacity:1"
   d="m 148.9201,72.706512 -124.999997,0"
   id="line257" /><path
   style="fill:none;stroke:#00ff00;stroke-width:1.41729999;stroke-miterlimit:10;stroke-opacity:1"
   d="m 148.9201,91.831505 -124.999997,0"
   id="line259" /><path
   style="fill:none;stroke:#00ff00;stroke-width:1.41729999;stroke-miterlimit:10;stroke-opacity:1"
   d="m 148.9201,114.52256 -124.999997,0"
   id="line261" /><path
   style="fill:none;stroke:#00ff00;stroke-width:1.41729999;stroke-miterlimit:10;stroke-opacity:1"
   d="M 148.44354,103.6285 23.920103,114.52256"
   id="line263" /><path
   style="fill:none;stroke:#00ff00;stroke-width:1.41729999;stroke-miterlimit:10;stroke-opacity:1"
   d="M 148.61542,83.112511 23.920103,91.831505"
   id="line265" /><path
   style="fill:none;stroke:#00ff00;stroke-width:1.41729999;stroke-miterlimit:10;stroke-opacity:1"
   d="m 148.68182,138.8295 -124.999998,0"
   id="line267" /><path
   style="fill:none;stroke:#00ff00;stroke-width:1.41729999;stroke-miterlimit:10;stroke-opacity:1"
   d="m 148.68182,165.2095 -124.999998,0"
   id="line269" /><path
   style="fill:none;stroke:#00ff00;stroke-width:1.41729999;stroke-miterlimit:10;stroke-opacity:1"
   d="m 147.46307,173.77847 -123.781248,17.396"
   id="line271" /><path
   style="fill:none;stroke:#00ff00;stroke-width:1.41729999;stroke-miterlimit:10;stroke-opacity:1"
   d="m 148.68182,191.18045 -124.999998,0"
   id="line273" /><path
   style="fill:none;stroke:#00ff00;stroke-width:1.41729999;stroke-miterlimit:10;stroke-opacity:1"
   d="m 148.68182,220.91447 -124.999998,0"
   id="line275" /><path
   style="fill:none;stroke:#00ff00;stroke-width:1.41729999;stroke-miterlimit:10;stroke-opacity:1"
   d="M 147.99432,125.76052 23.681822,138.82748"
   id="line277" /><path
   style="fill:none;stroke:#00ff00;stroke-width:1.41729999;stroke-miterlimit:10;stroke-opacity:1"
   d="M 147.74823,149.9725 23.681822,165.20749"
   id="line279" /><path
   style="fill:none;stroke:#00ff00;stroke-width:1.41729999;stroke-miterlimit:10;stroke-opacity:1"
   d="M 147.14275,201.35948 23.681822,220.91447"
   id="line281" /><path
   style="fill:none;stroke:#00ff00;stroke-width:1.41729999;stroke-miterlimit:10;stroke-opacity:1"
   d="m 148.68182,248.94347 -124.999998,0"
   id="line283" /><g
   style="font-size:12px;font-family:KozGoPr6N-Regular-83pv-RKSJ-H;fill:none;stroke:#00ff00;stroke-opacity:1"
   id="text285"><path
     d="m 157.78729,38.394661 0,-3.65625 0,-3.609375 -1.40625,0 0,-0.5625 q 1.64063,0 1.92188,-1.3125 l 0.5625,0 0,9.140625 -1.07813,0 z"
     style="font-size:12px;font-family:KozGoPr6N-Regular-83pv-RKSJ-H;fill:none;stroke:#00ff00;stroke-opacity:1"
     id="path4299" /><path
     d="m 164.39667,29.347786 q 0.42187,0.421875 0.42187,1.078125 0,0.65625 -0.42187,1.078125 -0.42188,0.421875 -1.07813,0.421875 -0.65625,0 -1.07812,-0.421875 -0.42188,-0.421875 -0.42188,-1.078125 0,-0.65625 0.42188,-1.078125 0.42187,-0.421875 1.07812,-0.421875 0.65625,0 1.07813,0.421875 z m -0.46875,1.6875 q 0.28125,-0.28125 0.28125,-0.609375 0,-0.328125 -0.28125,-0.609375 -0.28125,-0.28125 -0.60938,-0.28125 -0.32812,0 -0.60937,0.28125 -0.28125,0.28125 -0.28125,0.609375 0,0.328125 0.28125,0.609375 0.28125,0.28125 0.60937,0.28125 0.32813,0 0.60938,-0.28125 z"
     style="font-size:12px;font-family:KozGoPr6N-Regular-83pv-RKSJ-H;fill:none;stroke:#00ff00;stroke-opacity:1"
     id="path4301" /></g>
<g
   style="font-size:12px;font-family:KozGoPr6N-Regular-83pv-RKSJ-H;fill:none;stroke:#00ff00;stroke-opacity:1"
   id="text287"><path
     d="m 160.55292,54.419136 0,0.890625 -4.78125,0 0,-0.75 q 1.07812,-2.015625 2.67187,-3.84375 0.89063,-1.03125 0.89063,-2.15625 0,-0.796875 -0.42188,-1.21875 -0.28125,-0.28125 -0.75,-0.28125 -0.375,0 -0.75,0.375 -0.42187,0.421875 -0.42187,1.734375 l -1.03125,0 q 0.0469,-1.6875 0.79687,-2.4375 0.5625,-0.5625 1.5,-0.5625 0.89063,0 1.5,0.609375 0.65625,0.65625 0.65625,1.828125 0,1.359375 -1.26562,2.8125 -1.35938,1.546875 -2.25,3 l 3.65625,0 z"
     style="font-size:12px;font-family:KozGoPr6N-Regular-83pv-RKSJ-H;fill:none;stroke:#00ff00;stroke-opacity:1"
     id="path4294" /><path
     d="m 164.39667,46.262886 q 0.42187,0.421875 0.42187,1.078125 0,0.65625 -0.42187,1.078125 -0.42188,0.421875 -1.07813,0.421875 -0.65625,0 -1.07812,-0.421875 -0.42188,-0.421875 -0.42188,-1.078125 0,-0.65625 0.42188,-1.078125 0.42187,-0.421875 1.07812,-0.421875 0.65625,0 1.07813,0.421875 z m -0.46875,1.6875 q 0.28125,-0.28125 0.28125,-0.609375 0,-0.328125 -0.28125,-0.609375 -0.28125,-0.28125 -0.60938,-0.28125 -0.32812,0 -0.60937,0.28125 -0.28125,0.28125 -0.28125,0.609375 0,0.328125 0.28125,0.609375 0.28125,0.28125 0.60937,0.28125 0.32813,0 0.60938,-0.28125 z"
     style="font-size:12px;font-family:KozGoPr6N-Regular-83pv-RKSJ-H;fill:none;stroke:#00ff00;stroke-opacity:1"
     id="path4296" /></g>
<g
   style="font-size:12px;font-family:KozGoPr6N-Regular-83pv-RKSJ-H;fill:none;stroke:#00ff00;stroke-opacity:1"
   id="text289"><path
     d="m 156.80292,69.891754 q -0.0469,1.03125 0.42187,1.5 0.32813,0.328125 0.89063,0.328125 0.46875,0 0.89062,-0.421875 0.42188,-0.421875 0.42188,-1.40625 0,-0.75 -0.51563,-1.265625 -0.375,-0.375 -1.125,-0.328125 l 0,-0.796875 q 0.75,-0.04687 1.125,-0.421875 0.375,-0.375 0.375,-1.125 0,-0.9375 -0.42187,-1.359375 -0.28125,-0.28125 -0.70313,-0.28125 -0.42187,0 -0.70312,0.28125 -0.46875,0.46875 -0.51563,1.40625 l -1.03125,0 q 0.0469,-1.21875 0.79688,-1.96875 0.5625,-0.5625 1.45312,-0.5625 0.9375,0 1.5,0.5625 0.65625,0.65625 0.65625,1.734375 0,0.984375 -0.51562,1.5 -0.46875,0.46875 -0.89063,0.609375 0.60938,0.1875 0.9375,0.515625 0.65625,0.65625 0.65625,1.59375 0,1.21875 -0.75,1.96875 -0.65625,0.65625 -1.64062,0.65625 -1.07813,0 -1.6875,-0.609375 -0.70313,-0.703125 -0.70313,-2.109375 l 1.07813,0 z"
     style="font-size:12px;font-family:KozGoPr6N-Regular-83pv-RKSJ-H;fill:none;stroke:#00ff00;stroke-opacity:1"
     id="path4289" /><path
     d="m 164.39667,63.563629 q 0.42187,0.421875 0.42187,1.078125 0,0.65625 -0.42187,1.078125 -0.42188,0.421875 -1.07813,0.421875 -0.65625,0 -1.07812,-0.421875 -0.42188,-0.421875 -0.42188,-1.078125 0,-0.65625 0.42188,-1.078125 0.42187,-0.421875 1.07812,-0.421875 0.65625,0 1.07813,0.421875 z m -0.46875,1.6875 q 0.28125,-0.28125 0.28125,-0.609375 0,-0.328125 -0.28125,-0.609375 -0.28125,-0.28125 -0.60938,-0.28125 -0.32812,0 -0.60937,0.28125 -0.28125,0.28125 -0.28125,0.609375 0,0.328125 0.28125,0.609375 0.28125,0.28125 0.60937,0.28125 0.32813,0 0.60938,-0.28125 z"
     style="font-size:12px;font-family:KozGoPr6N-Regular-83pv-RKSJ-H;fill:none;stroke:#00ff00;stroke-opacity:1"
     id="path4291" /></g>
<g
   style="font-size:12px;font-family:KozGoPr6N-Regular-83pv-RKSJ-H;fill:none;stroke:#00ff00;stroke-opacity:1"
   id="text291"><path
     d="m 158.72479,91.735497 0,-1.078125 0,-1.078125 -3.14062,0 0,-0.890625 3.14062,-6.09375 1.07813,0 0,6.09375 0.98437,0 0,0.890625 -0.98437,0 0,2.15625 -1.07813,0 z m 0,-3.046875 0,-4.125 -2.10937,4.125 2.10937,0 z"
     style="font-size:12px;font-family:KozGoPr6N-Regular-83pv-RKSJ-H;fill:none;stroke:#00ff00;stroke-opacity:1"
     id="path4284" /><path
     d="m 164.39667,82.688622 q 0.42187,0.421875 0.42187,1.078125 0,0.65625 -0.42187,1.078125 -0.42188,0.421875 -1.07813,0.421875 -0.65625,0 -1.07812,-0.421875 -0.42188,-0.421875 -0.42188,-1.078125 0,-0.65625 0.42188,-1.078125 0.42187,-0.421875 1.07812,-0.421875 0.65625,0 1.07813,0.421875 z m -0.46875,1.6875 q 0.28125,-0.28125 0.28125,-0.609375 0,-0.328125 -0.28125,-0.609375 -0.28125,-0.28125 -0.60938,-0.28125 -0.32812,0 -0.60937,0.28125 -0.28125,0.28125 -0.28125,0.609375 0,0.328125 0.28125,0.609375 0.28125,0.28125 0.60937,0.28125 0.32813,0 0.60938,-0.28125 z"
     style="font-size:12px;font-family:KozGoPr6N-Regular-83pv-RKSJ-H;fill:none;stroke:#00ff00;stroke-opacity:1"
     id="path4286" /></g>
<g
   style="font-size:12px;font-family:KozGoPr6N-Regular-83pv-RKSJ-H;fill:none;stroke:#00ff00;stroke-opacity:1"
   id="text293"><path
     d="m 156.80292,111.84878 q 0,0.9375 0.46875,1.40625 0.28125,0.28125 0.79687,0.28125 0.42188,0 0.79688,-0.375 0.5625,-0.5625 0.5625,-1.875 0,-1.21875 -0.46875,-1.6875 -0.28125,-0.28125 -0.65625,-0.28125 -0.84375,0 -1.35938,0.98437 l -0.9375,0 0.28125,-5.01562 4.03125,0 0,0.89062 -3.14062,0 -0.1875,3.04688 q 0.60937,-0.70313 1.54687,-0.70313 0.70313,0 1.21875,0.51563 0.75,0.75 0.75,2.25 0,1.59375 -0.89062,2.48437 -0.65625,0.65625 -1.59375,0.65625 -0.98438,0 -1.54688,-0.5625 -0.70312,-0.70312 -0.75,-2.01562 l 1.07813,0 z"
     style="font-size:12px;font-family:KozGoPr6N-Regular-83pv-RKSJ-H;fill:none;stroke:#00ff00;stroke-opacity:1"
     id="path4279" /><path
     d="m 164.39667,105.38003 q 0.42187,0.42187 0.42187,1.07812 0,0.65625 -0.42187,1.07813 -0.42188,0.42187 -1.07813,0.42187 -0.65625,0 -1.07812,-0.42187 -0.42188,-0.42188 -0.42188,-1.07813 0,-0.65625 0.42188,-1.07812 0.42187,-0.42188 1.07812,-0.42188 0.65625,0 1.07813,0.42188 z m -0.46875,1.6875 q 0.28125,-0.28125 0.28125,-0.60938 0,-0.32812 -0.28125,-0.60937 -0.28125,-0.28125 -0.60938,-0.28125 -0.32812,0 -0.60937,0.28125 -0.28125,0.28125 -0.28125,0.60937 0,0.32813 0.28125,0.60938 0.28125,0.28125 0.60937,0.28125 0.32813,0 0.60938,-0.28125 z"
     style="font-size:12px;font-family:KozGoPr6N-Regular-83pv-RKSJ-H;fill:none;stroke:#00ff00;stroke-opacity:1"
     id="path4281" /></g>
<g
   style="font-size:12px;font-family:KozGoPr6N-Regular-83pv-RKSJ-H;fill:none;stroke:#00ff00;stroke-opacity:1"
   id="text295"><path
     d="m 159.38104,131.7023 q 0,-0.70312 -0.32812,-1.03125 -0.1875,-0.1875 -0.46875,-0.1875 -0.375,0 -0.65625,0.28125 -0.79688,0.79688 -0.98438,3.14063 0.65625,-1.07813 1.59375,-1.07813 0.70313,0 1.26563,0.5625 0.75,0.75 0.75,2.29688 0,1.6875 -0.79688,2.48437 -0.5625,0.5625 -1.45312,0.5625 -0.79688,0 -1.45313,-0.65625 -0.98437,-0.98437 -0.98437,-3.79687 0,-2.76563 1.35937,-4.125 0.5625,-0.5625 1.40625,-0.5625 0.70313,0 1.125,0.42187 0.65625,0.65625 0.70313,1.6875 l -1.07813,0 z m -1.03125,1.96875 q -0.42187,0 -0.75,0.32813 -0.5625,0.5625 -0.5625,1.5 0,1.45312 0.65625,2.10937 0.28125,0.28125 0.65625,0.28125 0.375,0 0.70313,-0.32812 0.42187,-0.42188 0.42187,-1.875 0,-1.26563 -0.46875,-1.73438 -0.28125,-0.28125 -0.65625,-0.28125 z"
     style="font-size:12px;font-family:KozGoPr6N-Regular-83pv-RKSJ-H;fill:none;stroke:#00ff00;stroke-opacity:1"
     id="path4274" /><path
     d="m 164.39667,129.68668 q 0.42187,0.42187 0.42187,1.07812 0,0.65625 -0.42187,1.07813 -0.42188,0.42187 -1.07813,0.42187 -0.65625,0 -1.07812,-0.42187 -0.42188,-0.42188 -0.42188,-1.07813 0,-0.65625 0.42188,-1.07812 0.42187,-0.42188 1.07812,-0.42188 0.65625,0 1.07813,0.42188 z m -0.46875,1.6875 q 0.28125,-0.28125 0.28125,-0.60938 0,-0.32812 -0.28125,-0.60937 -0.28125,-0.28125 -0.60938,-0.28125 -0.32812,0 -0.60937,0.28125 -0.28125,0.28125 -0.28125,0.60937 0,0.32813 0.28125,0.60938 0.28125,0.28125 0.60937,0.28125 0.32813,0 0.60938,-0.28125 z"
     style="font-size:12px;font-family:KozGoPr6N-Regular-83pv-RKSJ-H;fill:none;stroke:#00ff00;stroke-opacity:1"
     id="path4276" /></g>
<g
   style="font-size:12px;font-family:KozGoPr6N-Regular-83pv-RKSJ-H;fill:none;stroke:#00ff00;stroke-opacity:1"
   id="text297"><path
     d="m 157.13104,165.11343 2.29688,-8.25 -3.46875,0 0,-0.89062 4.45312,0 0,0.98437 -2.20312,8.15625 -1.07813,0 z"
     style="font-size:12px;font-family:KozGoPr6N-Regular-83pv-RKSJ-H;fill:none;stroke:#00ff00;stroke-opacity:1"
     id="path4269" /><path
     d="m 164.39667,156.06656 q 0.42187,0.42187 0.42187,1.07812 0,0.65625 -0.42187,1.07813 -0.42188,0.42187 -1.07813,0.42187 -0.65625,0 -1.07812,-0.42187 -0.42188,-0.42188 -0.42188,-1.07813 0,-0.65625 0.42188,-1.07812 0.42187,-0.42188 1.07812,-0.42188 0.65625,0 1.07813,0.42188 z m -0.46875,1.6875 q 0.28125,-0.28125 0.28125,-0.60938 0,-0.32812 -0.28125,-0.60937 -0.28125,-0.28125 -0.60938,-0.28125 -0.32812,0 -0.60937,0.28125 -0.28125,0.28125 -0.28125,0.60937 0,0.32813 0.28125,0.60938 0.28125,0.28125 0.60937,0.28125 0.32813,0 0.60938,-0.28125 z"
     style="font-size:12px;font-family:KozGoPr6N-Regular-83pv-RKSJ-H;fill:none;stroke:#00ff00;stroke-opacity:1"
     id="path4271" /></g>
<g
   style="font-size:12px;font-family:KozGoPr6N-Regular-83pv-RKSJ-H;fill:none;stroke:#00ff00;stroke-opacity:1"
   id="text299"><path
     d="m 158.16229,186.81853 q -0.51562,0 -0.89062,0.375 -0.46875,0.46875 -0.46875,1.26562 0,0.9375 0.46875,1.40625 0.375,0.375 0.89062,0.375 0.51563,0 0.89063,-0.375 0.46875,-0.46875 0.46875,-1.40625 0,-0.79687 -0.46875,-1.26562 -0.375,-0.375 -0.89063,-0.375 z m 0.9375,-0.42188 q 0.42188,0.14063 0.75,0.46875 0.75,0.75 0.75,1.59375 0,1.26563 -0.75,2.01563 -0.60937,0.60937 -1.6875,0.60937 -1.07812,0 -1.6875,-0.60937 -0.75,-0.75 -0.75,-2.01563 0,-0.84375 0.75,-1.59375 0.32813,-0.32812 0.75,-0.46875 -0.375,-0.14062 -0.60937,-0.375 -0.65625,-0.65625 -0.65625,-1.54687 l 0,-0.0469 q 0,-1.17187 0.70312,-1.875 0.60938,-0.60937 1.5,-0.60937 0.89063,0 1.5,0.60937 0.70313,0.70313 0.70313,1.875 l 0,0.0469 q 0,0.89062 -0.65625,1.54687 -0.23438,0.23438 -0.60938,0.375 z m -0.9375,-3.60937 q -0.46875,0 -0.79687,0.32812 -0.375,0.375 -0.375,1.3125 l 0,0.0469 q 0,0.84375 0.375,1.21875 0.32812,0.32812 0.79687,0.32812 0.46875,0 0.79688,-0.32812 0.375,-0.375 0.375,-1.21875 l 0,-0.0469 q 0,-0.9375 -0.375,-1.3125 -0.32813,-0.32812 -0.79688,-0.32812 z"
     style="font-size:12px;font-family:KozGoPr6N-Regular-83pv-RKSJ-H;fill:none;stroke:#00ff00;stroke-opacity:1"
     id="path4264" /><path
     d="m 164.39667,182.03728 q 0.42187,0.42187 0.42187,1.07812 0,0.65625 -0.42187,1.07813 -0.42188,0.42187 -1.07813,0.42187 -0.65625,0 -1.07812,-0.42187 -0.42188,-0.42188 -0.42188,-1.07813 0,-0.65625 0.42188,-1.07812 0.42187,-0.42188 1.07812,-0.42188 0.65625,0 1.07813,0.42188 z m -0.46875,1.6875 q 0.28125,-0.28125 0.28125,-0.60938 0,-0.32812 -0.28125,-0.60937 -0.28125,-0.28125 -0.60938,-0.28125 -0.32812,0 -0.60937,0.28125 -0.28125,0.28125 -0.28125,0.60937 0,0.32813 0.28125,0.60938 0.28125,0.28125 0.60937,0.28125 0.32813,0 0.60938,-0.28125 z"
     style="font-size:12px;font-family:KozGoPr6N-Regular-83pv-RKSJ-H;fill:none;stroke:#00ff00;stroke-opacity:1"
     id="path4266" /></g>
<g
   style="font-size:12px;font-family:KozGoPr6N-Regular-83pv-RKSJ-H;fill:none;stroke:#00ff00;stroke-opacity:1"
   id="text301"><path
     d="m 151.17401,248.84685 0,-3.65625 0,-3.60938 -1.40625,0 0,-0.5625 q 1.64063,0 1.92188,-1.3125 l 0.5625,0 0,9.14063 -1.07813,0 z"
     style="font-size:12px;font-family:KozGoPr6N-Regular-83pv-RKSJ-H;fill:none;stroke:#00ff00;stroke-opacity:1"
     id="path4257" /><path
     d="m 154.97089,244.2531 q 0,-2.76563 1.125,-3.89063 0.65625,-0.65625 1.45312,-0.65625 0.79688,0 1.45313,0.65625 1.125,1.125 1.125,3.89063 0,2.8125 -1.125,3.9375 -0.65625,0.65625 -1.45313,0.65625 -0.79687,0 -1.45312,-0.65625 -1.125,-1.125 -1.125,-3.9375 z m 4.07812,0 q 0,-2.48438 -0.89062,-3.375 -0.28125,-0.28125 -0.60938,-0.28125 -0.32812,0 -0.60937,0.28125 -0.89063,0.9375 -0.89063,3.375 0,2.53125 0.89063,3.42187 0.28125,0.28125 0.60937,0.28125 0.32813,0 0.60938,-0.28125 0.89062,-0.89062 0.89062,-3.42187 z"
     style="font-size:12px;font-family:KozGoPr6N-Regular-83pv-RKSJ-H;fill:none;stroke:#00ff00;stroke-opacity:1"
     id="path4259" /><path
     d="m 163.78339,239.79997 q 0.42187,0.42188 0.42187,1.07813 0,0.65625 -0.42187,1.07812 -0.42188,0.42188 -1.07813,0.42188 -0.65625,0 -1.07812,-0.42188 -0.42188,-0.42187 -0.42188,-1.07812 0,-0.65625 0.42188,-1.07813 0.42187,-0.42187 1.07812,-0.42187 0.65625,0 1.07813,0.42187 z m -0.46875,1.6875 q 0.28125,-0.28125 0.28125,-0.60937 0,-0.32813 -0.28125,-0.60938 -0.28125,-0.28125 -0.60938,-0.28125 -0.32812,0 -0.60937,0.28125 -0.28125,0.28125 -0.28125,0.60938 0,0.32812 0.28125,0.60937 0.28125,0.28125 0.60937,0.28125 0.32813,0 0.60938,-0.28125 z"
     style="font-size:12px;font-family:KozGoPr6N-Regular-83pv-RKSJ-H;fill:none;stroke:#00ff00;stroke-opacity:1"
     id="path4261" /></g>
<g
   style="font-size:12px;font-family:KozGoPr6N-Regular-83pv-RKSJ-H;fill:none;stroke:#00ff00;stroke-opacity:1"
   id="text303"><path
     d="m 159.4162,212.65154 q 1.07812,1.07812 1.07812,3.89062 0,2.85938 -1.26562,4.125 -0.5625,0.5625 -1.40625,0.5625 -0.70313,0 -1.125,-0.42187 -0.75,-0.75 -0.79688,-1.6875 l 1.07813,0 q 0,0.60937 0.42187,1.03125 0.1875,0.1875 0.51563,0.1875 0.32812,0 0.60937,-0.28125 0.70313,-0.70313 0.89063,-2.95313 -0.51563,1.07813 -1.59375,1.07813 -0.70313,0 -1.26563,-0.5625 -0.75,-0.75 -0.75,-2.48438 0,-1.59375 0.84375,-2.4375 0.60938,-0.60937 1.40625,-0.60937 0.79688,0 1.35938,0.5625 z m -0.70313,0.5625 q -0.28125,-0.28125 -0.70312,-0.28125 -0.28125,0 -0.60938,0.32812 -0.51562,0.51563 -0.51562,1.875 0,1.45313 0.46875,1.92188 0.28125,0.28125 0.65625,0.28125 0.42187,0 0.75,-0.32813 0.5625,-0.5625 0.5625,-1.6875 0,-1.5 -0.60938,-2.10937 z"
     style="font-size:12px;font-family:KozGoPr6N-Regular-83pv-RKSJ-H;fill:none;stroke:#00ff00;stroke-opacity:1"
     id="path4252" /><path
     d="m 164.38495,212.18279 q 0.42187,0.42187 0.42187,1.07812 0,0.65625 -0.42187,1.07813 -0.42188,0.42187 -1.07813,0.42187 -0.65625,0 -1.07812,-0.42187 -0.42188,-0.42188 -0.42188,-1.07813 0,-0.65625 0.42188,-1.07812 0.42187,-0.42188 1.07812,-0.42188 0.65625,0 1.07813,0.42188 z m -0.46875,1.6875 q 0.28125,-0.28125 0.28125,-0.60938 0,-0.32812 -0.28125,-0.60937 -0.28125,-0.28125 -0.60938,-0.28125 -0.32812,0 -0.60937,0.28125 -0.28125,0.28125 -0.28125,0.60937 0,0.32813 0.28125,0.60938 0.28125,0.28125 0.60937,0.28125 0.32813,0 0.60938,-0.28125 z"
     style="font-size:12px;font-family:KozGoPr6N-Regular-83pv-RKSJ-H;fill:none;stroke:#00ff00;stroke-opacity:1"
     id="path4254" /></g>
<path
   style="fill:none;stroke:#00ff00;stroke-width:1.41729999;stroke-miterlimit:10;stroke-opacity:1"
   d="M 146.78339,227.2365 23.681822,248.94145"
   id="line305" /><g
   transform="matrix(1.1631259,0,0,0.53179707,-63.688487,17.295687)"
   id="g59"
   style="fill:none;stroke:#00ff00;stroke-opacity:1"><path
     style="fill:none;stroke:#00ff00;stroke-opacity:1"
     d="m 218.685,38.463001 0,367.041999"
     id="line61"
     inkscape:connector-curvature="0" /><path
     style="fill:none;stroke:#00ff00;stroke-opacity:1"
     d="m 218.543,38.463001 0.283,0 0,367.041989 -0.283,0 z"
     id="rect63"
     inkscape:connector-curvature="0" /></g>
<g
   style="font-style:normal;font-weight:normal;font-size:15px;line-height:125%;font-family:sans-serif;letter-spacing:0px;word-spacing:0px;fill:none;fill-opacity:1;stroke:#00ff00;stroke-width:1px;stroke-linecap:butt;stroke-linejoin:miter;stroke-opacity:1"
   id="text4335"
   transform="translate(43.315377,-5.0959267)"><path
     d="m 35.584831,23.87899 q 0,0.830078 -0.78125,0.830078 l -1.220703,0 -0.195312,-0.927734 1.02539,0 q 0.195313,0 0.195313,-0.195313 l 0,-1.660156 -6.00586,0 q -0.09766,1.708985 -2.001953,2.978516 l -0.634765,-0.927735 q 1.708984,-0.927734 1.708984,-3.027343 l 0,-3.515625 q -0.683594,0.683593 -1.513672,1.123047 l -0.488281,-0.976563 q 2.34375,-1.318359 3.466797,-4.101562 l 1.02539,0.24414 q 0.195313,0.195313 -0.146484,0.244141 l -0.195313,0.439453 3.173829,0 0.24414,-0.341797 0.927735,0.585938 q 0.24414,0.24414 -0.244141,0.292968 l -1.464844,1.708985 3.125,0 0,7.226562 z m -4.492187,-6.445312 -2.441407,0 0,1.416015 2.441407,0 0,-1.416015 z m 0.976562,0 0,1.416015 2.539063,0 0,-1.416015 -2.539063,0 z m -0.976562,2.197265 -2.441407,0 0,1.513672 2.441407,0 0,-1.513672 z m 0.976562,0 0,1.513672 2.539063,0 0,-1.513672 -2.539063,0 z m 0.390625,-4.443359 -3.027344,0 q -0.292968,0.585937 -1.02539,1.464844 l 2.929687,0 1.123047,-1.464844 z"
     style="font-size:12.5px;fill:none;stroke:#00ff00;stroke-opacity:1"
     id="path4227"
     inkscape:connector-curvature="0" /><path
     d="m 48.768425,24.855553 q -2.34375,-0.292969 -4.150391,-1.220703 -1.708984,1.02539 -4.101562,1.269531 L 40.125847,23.87899 q 2.197265,-0.195312 3.662109,-0.927734 -0.78125,-0.78125 -1.416015,-1.660156 l -1.367188,0 0,-0.78125 5.712891,0 0.146484,-0.146485 0.732422,0.585938 q 0.195312,0.292968 -0.195313,0.24414 -0.830078,0.976563 -2.001953,1.806641 1.708985,0.585937 3.613282,0.732422 l -0.244141,1.123047 z m -4.443359,-9.960938 4.394531,0 0,0.927735 -8.642578,0 0,4.296875 q 0,2.734375 -1.220703,4.589843 l -0.878907,-0.732422 q 1.123047,-1.513671 1.123047,-4.052734 l 0,-5.029297 4.101563,0 0,-1.269531 1.074218,0 q 0.390625,0.04883 0.04883,0.292969 l 0,0.976562 z m 0.292968,7.56836 Q 45.203972,22.07235 45.985222,21.2911 l -2.539063,0 q 0.488282,0.585937 1.171875,1.171875 z m 1.757813,-2.636719 -0.976563,0 0,-0.292969 -2.099609,0 0,0.341797 -0.976563,0 0,-1.953125 -1.953125,0 0,-0.78125 1.953125,0 0,-0.927734 0.927735,0 q 0.390625,0.04883 0.04883,0.292968 l 0,0.634766 2.099609,0 0,-1.025391 0.927735,0 q 0.390625,0.04883 0.04883,0.292969 l 0,0.732422 2.34375,0 0,0.78125 -2.34375,0 0,1.904297 z m -0.976563,-1.904297 -2.099609,0 0,0.830078 2.099609,0 0,-0.830078 z"
     style="font-size:12.5px;fill:none;stroke:#00ff00;stroke-opacity:1"
     id="path4229"
     inkscape:connector-curvature="0" /></g>
<g
   style="font-style:normal;font-weight:normal;font-size:40px;line-height:125%;font-family:sans-serif;letter-spacing:0px;word-spacing:0px;fill:none;fill-opacity:1;stroke:#00ff00;stroke-width:1px;stroke-linecap:butt;stroke-linejoin:miter;stroke-opacity:1"
   id="text4361"
   transform="translate(4.6050411,-3.329213)"><path
     d="m 269.77519,16.119738 2.34375,0 0,4.296875 -2.14844,0 0,0.585937 q 0,0.341797 0.53711,1.220703 l 1.51368,-1.513672 0.68359,0.78125 q 0.0488,0.244141 -0.24414,0.146485 l -1.51367,1.171875 q 0.78125,1.02539 2.09961,1.855469 l -0.53711,0.976562 Q 270.9959,24.66466 269.9705,22.858019 l 0,2.441406 q 0,0.732422 -0.58593,0.732422 l -0.92774,0 -0.19531,-0.78125 0.68359,0 q 0.19532,0 0.19532,-0.195312 l 0,-4.638672 -1.07422,0 -1.02539,0 0,-4.296875 1.85547,0 0.29296,-1.31836 1.0254,0.195313 q 0.39062,0.146484 -0.0488,0.292969 l -0.39063,0.830078 z m -0.97656,5.517578 -0.0977,0.24414 q -0.0488,2.734375 -2.14843,3.90625 l -0.63477,-0.732421 q 1.75781,-1.074219 1.85547,-2.832032 l -1.26953,0 0,-0.78125 1.41601,0 0.14649,-0.146484 0.73242,0.341797 z m -4.10156,-5.957031 q -1.02539,1.660156 -1.36719,2.148437 l 0.63477,0.537109 1.31835,-2.050781 0.78125,0.53711 q 0.19532,0.195312 -0.14648,0.24414 -1.31836,1.953125 -2.14844,2.929688 l 1.61133,-0.146485 -0.3418,-0.683593 0.73243,-0.390625 q 0.73242,0.927734 1.07421,2.001953 l -0.8789,0.390625 -0.24414,-0.53711 -1.02539,0.146485 0,5.371093 -0.97657,0 0,-5.273437 -1.61132,0.09766 q -0.24414,0.292969 -0.29297,-0.195312 l -0.0977,-0.732422 0.97656,0 0.6836,-0.927735 -1.51367,-1.220703 0.48828,-0.732422 0.24414,0.146485 q 0.97656,-1.513672 1.36719,-2.34375 l 0.8789,0.439453 q 0.19531,0.195312 -0.14648,0.244141 z m -2.73438,9.082031 q 0.39063,-1.855469 0.39063,-2.929688 l 0.8789,0.09766 q 0.39063,0.09766 0.0488,0.24414 0,1.611328 -0.39062,3.076172 l -0.92774,-0.488281 z m 5.90821,-6.884766 3.41796,0 0,-0.976562 -3.41796,0 0,0.976562 z m 3.41796,1.757813 0,-0.976563 -3.41796,0 0,0.976563 3.41796,0 z m -5.37109,2.148437 q 0.3418,0.732422 0.48828,2.050781 l -0.92773,0.195313 q -0.0488,-0.830078 -0.39063,-2.050781 l 0.83008,-0.195313 z"
     style="font-size:12.5px;fill:none;stroke:#00ff00;stroke-opacity:1"
     id="path4372"
     inkscape:connector-curvature="0" /></g><path
   style="opacity:0.93999999;fill:none;fill-opacity:1;fill-rule:nonzero;stroke:#0000ff;stroke-width:0.667;stroke-linecap:square;stroke-linejoin:miter;stroke-miterlimit:24.29999924;stroke-dasharray:none;stroke-dashoffset:27.62999344;stroke-opacity:1"
   d="m 2.5479634,2.0747831 350.9819966,0 0,350.9819669 -350.9819966,0 z"
   id="rect4374" /><g
   style="font-style:normal;font-weight:normal;font-size:40px;line-height:125%;font-family:sans-serif;letter-spacing:0px;word-spacing:0px;fill:none;fill-opacity:1;stroke:#00ff00;stroke-width:1px;stroke-linecap:butt;stroke-linejoin:miter;stroke-opacity:1"
   id="text4378"
   transform="translate(52.87024,-66.24705)"><path
     d="m 174.99707,315.49432 q 0.73242,3.61328 3.75977,5.66407 l -0.83008,1.07421 q -3.17383,-2.34375 -4.00391,-6.39648 l 1.07422,-0.3418 z m -1.46484,-4.3457 q 0.48828,0.0977 0.0488,0.39063 l 0,1.46484 4.58985,0 0,2.7832 -1.12305,0 0,-1.85547 -7.91015,0 0,1.85547 -1.12305,0 0,-2.7832 4.44336,0 0,-1.85547 1.07422,0 z m -5.95703,10.25391 q 2.97851,-2.44141 3.6621,-5.85938 l 1.26954,0.39063 q 0.19531,0.24414 -0.19532,0.29297 -0.73242,3.41796 -3.80859,6.05468 l -0.92773,-0.8789 z"
     style="font-size:12.5px;fill:none;stroke:#00ff00;stroke-opacity:1"
     id="path4385"
     inkscape:connector-curvature="0" /><path
     d="m 186.56934,321.25604 q 2.00195,-0.19531 2.68554,-0.8789 0.53711,-0.53711 0.53711,-1.51368 0,-1.07421 -0.53711,-1.61132 -0.63476,-0.63477 -1.75781,-0.73243 -0.78125,2.53907 -1.75781,3.56446 l 0.29297,0.63476 -0.92774,0.6836 -0.24414,-0.53711 q -1.26953,1.07422 -2.14844,1.07422 -0.58593,0 -1.07421,-0.48829 -0.53711,-0.5371 -0.53711,-1.46484 0,-1.66016 1.12304,-2.7832 0.6836,-0.6836 1.41602,-1.07422 l 0.0977,-1.85547 -2.05078,0.0977 -0.19531,-1.07422 2.29492,-0.0488 q 0.0488,-1.12305 0.14649,-2.14844 l 0.92773,0 q 0.48828,0.0977 0.0977,0.39063 -0.0977,0.8789 -0.14649,1.70898 2.34375,-0.14648 4.00391,-0.43945 l 0.19531,1.07422 q -2.05078,0.24414 -4.24804,0.34179 l -0.0977,1.5625 q 0.68359,-0.24414 1.9043,-0.29296 l 0.14648,-0.78125 0.92773,0.14648 q 0.43946,0.0977 0.0977,0.39062 l -0.0488,0.3418 q 1.51367,0.14649 2.34375,0.97656 0.92774,0.92774 0.92774,2.39258 0,1.36719 -0.83008,2.19727 -0.87891,0.8789 -2.92969,1.2207 l -0.63476,-1.07422 z m -2.78321,-4.10156 q -0.39062,0.19531 -0.8789,0.68359 -0.87891,0.87891 -0.87891,2.29493 0,0.39062 0.29297,0.68359 0.0977,0.0977 0.39062,0.0977 0.73243,0 1.66016,-0.92774 -0.48828,-1.46484 -0.58594,-2.83203 z m 0.97657,-0.48828 q 0.0488,1.26953 0.48828,2.4414 0.78125,-1.07421 1.12304,-2.68554 -0.8789,0 -1.61132,0.24414 z"
     style="font-size:12.5px;fill:none;stroke:#00ff00;stroke-opacity:1"
     id="path4387"
     inkscape:connector-curvature="0" /><path
     d="m 201.07129,317.20331 q 0,2.83203 -1.66016,4.88281 l -1.02539,-0.58594 q 1.70899,-1.95312 1.70899,-4.49218 l 0,-1.36719 q -1.85547,0.14648 -3.51563,0.14648 l 0,-1.07422 q 1.66016,0.0488 3.51563,-0.0977 l 0,-2.97852 0.8789,0 q 0.43946,0.0977 0.0977,0.39063 l 0,2.53906 q 1.2207,-0.0977 2.29492,-0.29297 l 0.14649,1.02539 q -1.26954,0.14649 -2.44141,0.24414 l 0,1.66016 z m -7.27539,-0.14649 q 0,-2.83203 0.48828,-4.93164 l 0.92773,0.24414 q 0.63477,0.14649 0.0488,0.43946 -0.43945,2.09961 -0.43945,4.24804 0,1.75782 0.39062,3.71094 l -1.07421,0.19531 q -0.3418,-1.75781 -0.3418,-3.90625 z"
     style="font-size:12.5px;fill:none;stroke:#00ff00;stroke-opacity:1"
     id="path4389"
     inkscape:connector-curvature="0" /></g><path
   style="opacity:0.93999999;fill:none;fill-opacity:1;fill-rule:nonzero;stroke:#0000ff;stroke-width:2.54216194;stroke-linecap:square;stroke-linejoin:miter;stroke-miterlimit:24.29999924;stroke-dasharray:none;stroke-dashoffset:27.62999344;stroke-opacity:1"
   d="M 77.158882,293.81656 A 34.161991,34.161991 0 0 1 42.996891,327.97855 34.161991,34.161991 0 0 1 8.8348999,293.81656 34.161991,34.161991 0 0 1 42.996891,259.65457 34.161991,34.161991 0 0 1 77.158882,293.81656 Z"
   id="path4467" /><path
   style="opacity:1;fill:none;fill-opacity:1;fill-rule:nonzero;stroke:#0000ff;stroke-width:1.41956341;stroke-linecap:square;stroke-linejoin:miter;stroke-miterlimit:24.29999924;stroke-dasharray:none;stroke-dashoffset:27.62999344;stroke-opacity:1"
   d="m 134.15346,296.36453 a 25.865021,25.865021 0 0 1 -25.86502,25.86502 25.865021,25.865021 0 0 1 -25.865024,-25.86502 25.865021,25.865021 0 0 1 25.865024,-25.86502 25.865021,25.865021 0 0 1 25.86502,25.86502 z"
   id="path4475" /><path
   style="opacity:1;fill:none;fill-opacity:1;fill-rule:nonzero;stroke:#0000ff;stroke-width:0.64475483;stroke-linecap:square;stroke-linejoin:miter;stroke-miterlimit:24.29999924;stroke-dasharray:none;stroke-dashoffset:27.62999344;stroke-opacity:1"
   d="m 184.92275,284.58026 a 17.394157,17.394157 0 0 1 -17.39416,17.39416 17.394157,17.394157 0 0 1 -17.39415,-17.39416 17.394157,17.394157 0 0 1 17.39415,-17.39416 17.394157,17.394157 0 0 1 17.39416,17.39416 z"
   id="path4480" /><path
   style="opacity:1;fill:none;fill-opacity:1;fill-rule:nonzero;stroke:#0000ff;stroke-width:0.54928124;stroke-linecap:square;stroke-linejoin:miter;stroke-miterlimit:24.29999924;stroke-dasharray:none;stroke-dashoffset:27.62999344;stroke-opacity:1"
   d="m 224.74257,302.09747 a 13.898588,13.898588 0 0 1 -13.89859,13.89859 13.898588,13.898588 0 0 1 -13.89859,-13.89859 13.898588,13.898588 0 0 1 13.89859,-13.89859 13.898588,13.898588 0 0 1 13.89859,13.89859 z"
   id="path4482" /><path
   style="opacity:1;fill:none;fill-opacity:1;fill-rule:nonzero;stroke:#0000ff;stroke-width:0.70102721;stroke-linecap:square;stroke-linejoin:miter;stroke-miterlimit:24.29999924;stroke-dasharray:none;stroke-dashoffset:27.62999344;stroke-opacity:1"
   d="m 264.75725,283.30624 a 10.279408,10.279408 0 0 1 -10.27941,10.27941 10.279408,10.279408 0 0 1 -10.2794,-10.27941 10.279408,10.279408 0 0 1 10.2794,-10.2794 10.279408,10.279408 0 0 1 10.27941,10.2794 z"
   id="path4484" /><path
   style="opacity:1;fill:none;fill-opacity:1;fill-rule:nonzero;stroke:#0000ff;stroke-width:0.42099124;stroke-linecap:square;stroke-linejoin:miter;stroke-miterlimit:24.29999924;stroke-dasharray:none;stroke-dashoffset:27.62999344;stroke-opacity:1"
   d="m 273.77529,322.16269 a 6.8761187,6.8761187 0 0 1 -6.87612,6.87612 6.8761187,6.8761187 0 0 1 -6.87612,-6.87612 6.8761187,6.8761187 0 0 1 6.87612,-6.87612 6.8761187,6.8761187 0 0 1 6.87612,6.87612 z"
   id="path4486" /><path
   style="opacity:1;fill:none;fill-opacity:1;fill-rule:nonzero;stroke:#0000ff;stroke-width:0.35425216;stroke-linecap:square;stroke-linejoin:miter;stroke-miterlimit:24.29999924;stroke-dasharray:none;stroke-dashoffset:27.62999344;stroke-opacity:1"
   d="m 308.48477,288.72067 a 3.3661809,3.3661809 0 0 1 -3.36618,3.36618 3.3661809,3.3661809 0 0 1 -3.36618,-3.36618 3.3661809,3.3661809 0 0 1 3.36618,-3.36618 3.3661809,3.3661809 0 0 1 3.36618,3.36618 z"
   id="path4488" /><path
   style="opacity:1;fill:none;fill-opacity:1;fill-rule:nonzero;stroke:#0000ff;stroke-width:0.50331026;stroke-linecap:square;stroke-linejoin:miter;stroke-miterlimit:24.29999924;stroke-dasharray:none;stroke-dashoffset:27.62999344;stroke-opacity:1"
   d="m 323.20039,323.11819 a 1.5199984,1.5199984 0 0 1 -1.52,1.52 1.5199984,1.5199984 0 0 1 -1.52,-1.52 1.5199984,1.5199984 0 0 1 1.52,-1.51999 1.5199984,1.5199984 0 0 1 1.52,1.51999 z"
   id="path4490" /><g
   style="font-style:normal;font-weight:normal;font-size:40px;line-height:125%;font-family:sans-serif;letter-spacing:0px;word-spacing:0px;fill:none;fill-opacity:1;stroke:#00ff00;stroke-width:1px;stroke-linecap:butt;stroke-linejoin:miter;stroke-opacity:1"
   id="text4492"
   transform="translate(0.63699084,-3.821945)"><path
     d="m 26.881725,346.68681 -6.152343,0 0,-1.27563 q 0.640869,-0.54932 1.281738,-1.09863 0.646972,-0.54932 1.202392,-1.09253 1.171875,-1.13526 1.605225,-1.80054 0.43335,-0.67139 0.43335,-1.44653 0,-0.70801 -0.469971,-1.10474 -0.463867,-0.40283 -1.300049,-0.40283 -0.55542,0 -1.202392,0.19531 -0.646973,0.19531 -1.263428,0.59815 l -0.06104,0 0,-1.28174 q 0.433349,-0.21362 1.153564,-0.39063 0.726318,-0.177 1.403809,-0.177 1.397705,0 2.191162,0.67749 0.793457,0.67139 0.793457,1.82495 0,0.5188 -0.134278,0.97046 -0.128173,0.44556 -0.384521,0.84839 -0.238037,0.37842 -0.561523,0.74463 -0.317383,0.36621 -0.775147,0.81177 -0.653076,0.64087 -1.348877,1.24511 -0.695801,0.59815 -1.300049,1.11084 l 4.888916,0 0,1.0437 z"
     style="font-size:12.5px;fill:none;stroke:#00ff00;stroke-opacity:1"
     id="path4501"
     inkscape:connector-curvature="0" /><path
     d="m 34.828503,342.1397 q 0,2.44751 -0.769043,3.59497 -0.76294,1.14135 -2.374268,1.14135 -1.635742,0 -2.392578,-1.15966 -0.750732,-1.15967 -0.750732,-3.56446 0,-2.42309 0.762939,-3.57666 0.762939,-1.15967 2.380371,-1.15967 1.635742,0 2.386475,1.17798 0.756836,1.17188 0.756836,3.54615 z m -1.605225,2.77099 q 0.213623,-0.49438 0.286865,-1.15967 0.07935,-0.67138 0.07935,-1.61132 0,-0.92774 -0.07935,-1.61133 -0.07324,-0.6836 -0.292968,-1.15967 -0.213624,-0.46997 -0.585938,-0.70801 -0.366211,-0.23804 -0.946045,-0.23804 -0.57373,0 -0.952148,0.23804 -0.372315,0.23804 -0.592041,0.72022 -0.20752,0.45166 -0.286866,1.17798 -0.07324,0.72631 -0.07324,1.59301 0,0.95215 0.06714,1.59302 0.06714,0.64087 0.286865,1.14746 0.201416,0.47608 0.567627,0.72632 0.372315,0.25024 0.982666,0.25024 0.573731,0 0.952149,-0.23803 0.378417,-0.23804 0.585937,-0.72022 z"
     style="font-size:12.5px;fill:none;stroke:#00ff00;stroke-opacity:1"
     id="path4503"
     inkscape:connector-curvature="0" /><path
     d="m 46.742565,346.68681 -1.147461,0 0,-3.88183 q 0,-0.43945 -0.04272,-0.84839 -0.03662,-0.40894 -0.164795,-0.65308 -0.140381,-0.26245 -0.402832,-0.39672 -0.262452,-0.13428 -0.756836,-0.13428 -0.482178,0 -0.964356,0.24414 -0.482178,0.23804 -0.964355,0.61035 0.01831,0.14038 0.03052,0.32959 0.01221,0.18311 0.01221,0.36621 l 0,4.36401 -1.147461,0 0,-3.88183 q 0,-0.45166 -0.04272,-0.85449 -0.03662,-0.40894 -0.164795,-0.65308 -0.140381,-0.26245 -0.402832,-0.39062 -0.262451,-0.13428 -0.756836,-0.13428 -0.469971,0 -0.946045,0.23193 -0.469971,0.23194 -0.939941,0.59204 l 0,5.09033 -1.147461,0 0,-6.81762 1.147461,0 0,0.75683 q 0.537109,-0.44555 1.068115,-0.6958 0.537109,-0.25024 1.141357,-0.25024 0.695801,0 1.177979,0.29297 0.488281,0.29297 0.726318,0.81177 0.695801,-0.58594 1.269531,-0.84229 0.573731,-0.26245 1.226807,-0.26245 1.123047,0 1.654053,0.68359 0.537109,0.67749 0.537109,1.8982 l 0,4.42504 z"
     style="font-size:12.5px;fill:none;stroke:#00ff00;stroke-opacity:1"
     id="path4505"
     inkscape:connector-curvature="0" /><path
     d="m 58.900768,346.68681 -1.147461,0 0,-3.88183 q 0,-0.43945 -0.04272,-0.84839 -0.03662,-0.40894 -0.164795,-0.65308 -0.140381,-0.26245 -0.402832,-0.39672 -0.262451,-0.13428 -0.756836,-0.13428 -0.482178,0 -0.964356,0.24414 -0.482177,0.23804 -0.964355,0.61035 0.01831,0.14038 0.03052,0.32959 0.01221,0.18311 0.01221,0.36621 l 0,4.36401 -1.14746,0 0,-3.88183 q 0,-0.45166 -0.04272,-0.85449 -0.03662,-0.40894 -0.164795,-0.65308 -0.140381,-0.26245 -0.402832,-0.39062 -0.262451,-0.13428 -0.756836,-0.13428 -0.469971,0 -0.946045,0.23193 -0.469971,0.23194 -0.939941,0.59204 l 0,5.09033 -1.147461,0 0,-6.81762 1.147461,0 0,0.75683 q 0.537109,-0.44555 1.068115,-0.6958 0.537109,-0.25024 1.141357,-0.25024 0.695801,0 1.177979,0.29297 0.488281,0.29297 0.726318,0.81177 0.695801,-0.58594 1.269532,-0.84229 0.57373,-0.26245 1.226806,-0.26245 1.123047,0 1.654053,0.68359 0.537109,0.67749 0.537109,1.8982 l 0,4.42504 z"
     style="font-size:12.5px;fill:none;stroke:#00ff00;stroke-opacity:1"
     id="path4507"
     inkscape:connector-curvature="0" /><path
     d="m 95.197485,339.67991 -4.919434,0 0,-0.92773 1.89209,0 0,-6.09131 -1.89209,0 0,-0.83008 q 0.384522,0 0.823975,-0.061 0.439453,-0.0671 0.665283,-0.18921 0.280762,-0.15259 0.439453,-0.38452 0.164795,-0.23804 0.189209,-0.63477 l 0.946045,0 0,8.19092 1.855469,0 0,0.92773 z"
     style="font-size:12.5px;fill:none;stroke:#00ff00;stroke-opacity:1"
     id="path4509"
     inkscape:connector-curvature="0" /><path
     d="m 103.60203,336.79295 q 0,0.63477 -0.23194,1.2146 -0.23193,0.57984 -0.63476,0.97656 -0.43946,0.42725 -1.04981,0.65918 -0.60425,0.22583 -1.40381,0.22583 -0.744626,0 -1.434323,-0.15869 -0.689697,-0.15259 -1.165771,-0.37231 l 0,-1.28784 0.08545,0 q 0.500488,0.31738 1.171875,0.54321 0.671387,0.21973 1.318359,0.21973 0.43335,0 0.83618,-0.12207 0.40894,-0.12207 0.72632,-0.42725 0.26856,-0.26245 0.40283,-0.62866 0.14038,-0.36621 0.14038,-0.84839 0,-0.46997 -0.16479,-0.79346 -0.15869,-0.32348 -0.44556,-0.5188 -0.31738,-0.23193 -0.77514,-0.32348 -0.45166,-0.0977 -1.013189,-0.0977 -0.537109,0 -1.037597,0.0732 -0.494385,0.0732 -0.854492,0.14649 l 0,-4.6814 5.468748,0 0,1.06812 -4.29077,0 0,2.41699 q 0.262451,-0.0244 0.537109,-0.0366 0.274661,-0.0122 0.476071,-0.0122 0.73853,0 1.29395,0.12817 0.55542,0.12207 1.01929,0.43946 0.48828,0.33569 0.75683,0.8667 0.26856,0.531 0.26856,1.33056 z"
     style="font-size:12.5px;fill:none;stroke:#00ff00;stroke-opacity:1"
     id="path4511"
     inkscape:connector-curvature="0" /><path
     d="m 115.57712,339.67991 -1.14746,0 0,-3.88183 q 0,-0.43945 -0.0427,-0.84839 -0.0366,-0.40894 -0.16479,-0.65308 -0.14038,-0.26245 -0.40283,-0.39672 -0.26246,-0.13428 -0.75684,-0.13428 -0.48218,0 -0.96436,0.24414 -0.48217,0.23804 -0.96435,0.61035 0.0183,0.14038 0.0305,0.32959 0.0122,0.18311 0.0122,0.36621 l 0,4.36401 -1.14746,0 0,-3.88183 q 0,-0.45166 -0.0427,-0.85449 -0.0366,-0.40894 -0.1648,-0.65308 -0.14038,-0.26245 -0.40283,-0.39062 -0.26245,-0.13428 -0.75684,-0.13428 -0.46997,0 -0.94604,0.23193 -0.46997,0.23194 -0.93994,0.59204 l 0,5.09033 -1.14746,0 0,-6.81762 1.14746,0 0,0.75683 q 0.53711,-0.44555 1.06811,-0.6958 0.53711,-0.25024 1.14136,-0.25024 0.6958,0 1.17798,0.29297 0.48828,0.29297 0.72632,0.81177 0.6958,-0.58594 1.26953,-0.84229 0.57373,-0.26245 1.22681,-0.26245 1.12304,0 1.65405,0.68359 0.5371,0.67749 0.5371,1.8982 l 0,4.42504 z"
     style="font-size:12.5px;fill:none;stroke:#00ff00;stroke-opacity:1"
     id="path4513"
     inkscape:connector-curvature="0" /><path
     d="m 127.73533,339.67991 -1.14746,0 0,-3.88183 q 0,-0.43945 -0.0427,-0.84839 -0.0366,-0.40894 -0.16479,-0.65308 -0.14038,-0.26245 -0.40283,-0.39672 -0.26246,-0.13428 -0.75684,-0.13428 -0.48218,0 -0.96436,0.24414 -0.48217,0.23804 -0.96435,0.61035 0.0183,0.14038 0.0305,0.32959 0.0122,0.18311 0.0122,0.36621 l 0,4.36401 -1.14746,0 0,-3.88183 q 0,-0.45166 -0.0427,-0.85449 -0.0366,-0.40894 -0.1648,-0.65308 -0.14038,-0.26245 -0.40283,-0.39062 -0.26245,-0.13428 -0.75684,-0.13428 -0.46997,0 -0.94604,0.23193 -0.46997,0.23194 -0.93994,0.59204 l 0,5.09033 -1.14746,0 0,-6.81762 1.14746,0 0,0.75683 q 0.53711,-0.44555 1.06811,-0.6958 0.53711,-0.25024 1.14136,-0.25024 0.6958,0 1.17798,0.29297 0.48828,0.29297 0.72632,0.81177 0.6958,-0.58594 1.26953,-0.84229 0.57373,-0.26245 1.22681,-0.26245 1.12304,0 1.65405,0.68359 0.53711,0.67749 0.53711,1.8982 l 0,4.42504 z"
     style="font-size:12.5px;fill:none;stroke:#00ff00;stroke-opacity:1"
     id="path4515"
     inkscape:connector-curvature="0" /><path
     d="m 150.71964,320.57019 -4.91943,0 0,-0.92773 1.89209,0 0,-6.09131 -1.89209,0 0,-0.83008 q 0.38452,0 0.82397,-0.061 0.43945,-0.0671 0.66528,-0.18921 0.28077,-0.15259 0.43946,-0.38452 0.16479,-0.23804 0.18921,-0.63477 l 0.94604,0 0,8.19092 1.85547,0 0,0.92773 z"
     style="font-size:12.5px;fill:none;stroke:#00ff00;stroke-opacity:1"
     id="path4517"
     inkscape:connector-curvature="0" /><path
     d="m 159.18522,316.02308 q 0,2.44751 -0.76905,3.59497 -0.76294,1.14135 -2.37426,1.14135 -1.63575,0 -2.39258,-1.15966 -0.75073,-1.15967 -0.75073,-3.56446 0,-2.42309 0.76294,-3.57666 0.76293,-1.15967 2.38037,-1.15967 1.63574,0 2.38647,1.17798 0.75684,1.17188 0.75684,3.54615 z m -1.60523,2.77099 q 0.21363,-0.49438 0.28687,-1.15967 0.0793,-0.67138 0.0793,-1.61132 0,-0.92774 -0.0793,-1.61133 -0.0732,-0.6836 -0.29297,-1.15967 -0.21362,-0.46997 -0.58594,-0.70801 -0.36621,-0.23804 -0.94604,-0.23804 -0.57373,0 -0.95215,0.23804 -0.37232,0.23804 -0.59204,0.72022 -0.20752,0.45166 -0.28687,1.17798 -0.0732,0.72631 -0.0732,1.59301 0,0.95215 0.0671,1.59302 0.0671,0.64087 0.28686,1.14746 0.20142,0.47608 0.56763,0.72632 0.37231,0.25024 0.98267,0.25024 0.57373,0 0.95214,-0.23803 0.37842,-0.23804 0.58594,-0.72022 z"
     style="font-size:12.5px;fill:none;stroke:#00ff00;stroke-opacity:1"
     id="path4519"
     inkscape:connector-curvature="0" /><path
     d="m 171.73627,320.57019 -1.14746,0 0,-3.88183 q 0,-0.43945 -0.0427,-0.84839 -0.0366,-0.40894 -0.16479,-0.65308 -0.14038,-0.26245 -0.40283,-0.39672 -0.26245,-0.13428 -0.75684,-0.13428 -0.48218,0 -0.96435,0.24414 -0.48218,0.23804 -0.96436,0.61035 0.0183,0.14038 0.0305,0.32959 0.0122,0.18311 0.0122,0.36621 l 0,4.36401 -1.14746,0 0,-3.88183 q 0,-0.45166 -0.0427,-0.85449 -0.0366,-0.40894 -0.1648,-0.65308 -0.14038,-0.26245 -0.40283,-0.39062 -0.26245,-0.13428 -0.75683,-0.13428 -0.46997,0 -0.94605,0.23193 -0.46997,0.23194 -0.93994,0.59204 l 0,5.09033 -1.14746,0 0,-6.81762 1.14746,0 0,0.75683 q 0.53711,-0.44555 1.06812,-0.6958 0.5371,-0.25024 1.14135,-0.25024 0.6958,0 1.17798,0.29297 0.48828,0.29297 0.72632,0.81177 0.6958,-0.58594 1.26953,-0.84229 0.57373,-0.26245 1.22681,-0.26245 1.12304,0 1.65405,0.68359 0.53711,0.67749 0.53711,1.8982 l 0,4.42504 z"
     style="font-size:12.5px;fill:none;stroke:#00ff00;stroke-opacity:1"
     id="path4521"
     inkscape:connector-curvature="0" /><path
     d="m 184.53146,320.57019 -1.14746,0 0,-3.88183 q 0,-0.43945 -0.0427,-0.84839 -0.0366,-0.40894 -0.1648,-0.65308 -0.14038,-0.26245 -0.40283,-0.39672 -0.26245,-0.13428 -0.75684,-0.13428 -0.48217,0 -0.96435,0.24414 -0.48218,0.23804 -0.96436,0.61035 0.0183,0.14038 0.0305,0.32959 0.0122,0.18311 0.0122,0.36621 l 0,4.36401 -1.14746,0 0,-3.88183 q 0,-0.45166 -0.0427,-0.85449 -0.0366,-0.40894 -0.16479,-0.65308 -0.14038,-0.26245 -0.40283,-0.39062 -0.26246,-0.13428 -0.75684,-0.13428 -0.46997,0 -0.94605,0.23193 -0.46997,0.23194 -0.93994,0.59204 l 0,5.09033 -1.14746,0 0,-6.81762 1.14746,0 0,0.75683 q 0.53711,-0.44555 1.06812,-0.6958 0.53711,-0.25024 1.14136,-0.25024 0.6958,0 1.17797,0.29297 0.48829,0.29297 0.72632,0.81177 0.6958,-0.58594 1.26953,-0.84229 0.57373,-0.26245 1.22681,-0.26245 1.12305,0 1.65405,0.68359 0.53711,0.67749 0.53711,1.8982 l 0,4.42504 z"
     style="font-size:12.5px;fill:none;stroke:#00ff00;stroke-opacity:1"
     id="path4523"
     inkscape:connector-curvature="0" /><path
     d="m 203.64278,335.87298 q 0,1.17797 -0.92163,1.95922 -0.91552,0.78125 -2.30713,0.78125 -1.47705,0 -2.35595,-0.76293 -0.87281,-0.76294 -0.87281,-1.95313 0,-0.75684 0.43946,-1.36719 0.43945,-0.61645 1.23901,-0.97656 l 0,-0.0366 q -0.73242,-0.39063 -1.08643,-0.85449 -0.3479,-0.46387 -0.3479,-1.15967 0,-1.02539 0.84229,-1.70899 0.84228,-0.68359 2.14233,-0.68359 1.36109,0 2.17286,0.65308 0.81176,0.65307 0.81176,1.66015 0,0.61646 -0.38452,1.2146 -0.38452,0.59204 -1.12915,0.92774 l 0,0.0366 q 0.85449,0.36621 1.30615,0.90332 0.45166,0.53711 0.45166,1.36719 z m -1.44653,-4.43726 q 0,-0.65308 -0.50659,-1.0376 -0.50049,-0.39062 -1.28174,-0.39062 -0.76904,0 -1.26343,0.36621 -0.48828,0.36621 -0.48828,0.98877 0,0.43945 0.24414,0.76294 0.25025,0.31738 0.75073,0.56762 0.22583,0.10987 0.64698,0.28687 0.42724,0.177 0.83007,0.29297 0.60425,-0.40283 0.83619,-0.83618 0.23193,-0.43335 0.23193,-1.00098 z m 0.18921,4.55322 q 0,-0.56152 -0.25025,-0.89721 -0.24414,-0.3418 -0.96435,-0.6836 -0.28687,-0.13428 -0.62866,-0.25024 -0.3418,-0.11597 -0.90943,-0.32349 -0.54931,0.29907 -0.88501,0.81177 -0.32959,0.51269 -0.32959,1.15967 0,0.82397 0.56763,1.36108 0.56763,0.53711 1.44043,0.53711 0.89111,0 1.42212,-0.45776 0.53711,-0.45777 0.53711,-1.25733 z"
     style="font-size:12.5px;fill:none;stroke:#00ff00;stroke-opacity:1"
     id="path4525"
     inkscape:connector-curvature="0" /><path
     d="m 216.11449,338.40593 -1.14746,0 0,-3.88183 q 0,-0.43945 -0.0427,-0.84839 -0.0366,-0.40894 -0.16479,-0.65308 -0.14038,-0.26245 -0.40283,-0.39672 -0.26245,-0.13428 -0.75684,-0.13428 -0.48218,0 -0.96435,0.24414 -0.48218,0.23804 -0.96436,0.61035 0.0183,0.14038 0.0305,0.32959 0.0122,0.18311 0.0122,0.36621 l 0,4.36401 -1.14747,0 0,-3.88183 q 0,-0.45166 -0.0427,-0.85449 -0.0366,-0.40894 -0.1648,-0.65308 -0.14038,-0.26245 -0.40283,-0.39062 -0.26245,-0.13428 -0.75683,-0.13428 -0.46997,0 -0.94605,0.23193 -0.46997,0.23194 -0.93994,0.59204 l 0,5.09033 -1.14746,0 0,-6.81762 1.14746,0 0,0.75683 q 0.53711,-0.44555 1.06812,-0.6958 0.53711,-0.25024 1.14135,-0.25024 0.6958,0 1.17798,0.29297 0.48828,0.29297 0.72632,0.81177 0.6958,-0.58594 1.26953,-0.84229 0.57373,-0.26245 1.22681,-0.26245 1.12304,0 1.65405,0.68359 0.53711,0.67749 0.53711,1.8982 l 0,4.42504 z"
     style="font-size:12.5px;fill:none;stroke:#00ff00;stroke-opacity:1"
     id="path4527"
     inkscape:connector-curvature="0" /><path
     d="m 228.90968,338.40593 -1.14746,0 0,-3.88183 q 0,-0.43945 -0.0427,-0.84839 -0.0366,-0.40894 -0.1648,-0.65308 -0.14038,-0.26245 -0.40283,-0.39672 -0.26245,-0.13428 -0.75684,-0.13428 -0.48217,0 -0.96435,0.24414 -0.48218,0.23804 -0.96436,0.61035 0.0183,0.14038 0.0305,0.32959 0.0122,0.18311 0.0122,0.36621 l 0,4.36401 -1.14746,0 0,-3.88183 q 0,-0.45166 -0.0427,-0.85449 -0.0366,-0.40894 -0.16479,-0.65308 -0.14038,-0.26245 -0.40283,-0.39062 -0.26246,-0.13428 -0.75684,-0.13428 -0.46997,0 -0.94604,0.23193 -0.46998,0.23194 -0.93995,0.59204 l 0,5.09033 -1.14746,0 0,-6.81762 1.14746,0 0,0.75683 q 0.53711,-0.44555 1.06812,-0.6958 0.53711,-0.25024 1.14136,-0.25024 0.6958,0 1.17797,0.29297 0.48829,0.29297 0.72632,0.81177 0.6958,-0.58594 1.26953,-0.84229 0.57373,-0.26245 1.22681,-0.26245 1.12305,0 1.65405,0.68359 0.53711,0.67749 0.53711,1.8982 l 0,4.42504 z"
     style="font-size:12.5px;fill:none;stroke:#00ff00;stroke-opacity:1"
     id="path4529"
     inkscape:connector-curvature="0" /><path
     d="m 245.54017,306.79335 q 0,1.38549 -0.91552,2.2644 -0.90943,0.8728 -2.23389,0.8728 -0.67139,0 -1.2207,-0.20752 -0.54932,-0.20752 -0.97046,-0.61645 -0.52491,-0.50659 -0.81177,-1.34277 -0.28076,-0.83619 -0.28076,-2.01416 0,-1.2085 0.25634,-2.14234 0.26246,-0.93384 0.83008,-1.66015 0.53711,-0.6897 1.3855,-1.07422 0.84839,-0.39063 1.97754,-0.39063 0.36011,0 0.60425,0.0305 0.24414,0.0305 0.49438,0.10986 l 0,1.16577 -0.061,0 q -0.1709,-0.0915 -0.5188,-0.17089 -0.3418,-0.0855 -0.70191,-0.0855 -1.31225,0 -2.0935,0.82397 -0.78125,0.81787 -0.90943,2.21558 0.5127,-0.31128 1.00708,-0.46997 0.50049,-0.1648 1.15357,-0.1648 0.57983,0 1.01929,0.10986 0.44555,0.10376 0.90942,0.42725 0.53711,0.37232 0.80566,0.93994 0.27466,0.56763 0.27466,1.3794 z m -1.23901,0.0488 q 0,-0.56763 -0.1709,-0.93995 -0.16479,-0.37231 -0.54932,-0.64697 -0.28076,-0.19531 -0.62255,-0.25635 -0.3418,-0.061 -0.71412,-0.061 -0.51879,0 -0.96435,0.12207 -0.44556,0.12207 -0.91553,0.37842 -0.0122,0.13427 -0.0183,0.26245 -0.006,0.12207 -0.006,0.31128 0,0.96435 0.19531,1.52588 0.20142,0.55542 0.54932,0.8789 0.28076,0.26856 0.60424,0.39673 0.32959,0.12207 0.71412,0.12207 0.88501,0 1.3916,-0.53711 0.50659,-0.54321 0.50659,-1.55639 z"
     style="font-size:12.5px;fill:none;stroke:#00ff00;stroke-opacity:1"
     id="path4531"
     inkscape:connector-curvature="0" /><path
     d="m 258.58173,309.10435 -1.14746,0 0,-3.88183 q 0,-0.43945 -0.0427,-0.84839 -0.0366,-0.40894 -0.1648,-0.65308 -0.14038,-0.26245 -0.40283,-0.39672 -0.26245,-0.13428 -0.75684,-0.13428 -0.48218,0 -0.96435,0.24414 -0.48218,0.23804 -0.96436,0.61035 0.0183,0.14038 0.0305,0.32959 0.0122,0.18311 0.0122,0.36621 l 0,4.36401 -1.14747,0 0,-3.88183 q 0,-0.45166 -0.0427,-0.85449 -0.0366,-0.40894 -0.16479,-0.65308 -0.14039,-0.26245 -0.40284,-0.39062 -0.26245,-0.13428 -0.75683,-0.13428 -0.46997,0 -0.94605,0.23193 -0.46997,0.23194 -0.93994,0.59204 l 0,5.09033 -1.14746,0 0,-6.81762 1.14746,0 0,0.75683 q 0.53711,-0.44555 1.06812,-0.6958 0.53711,-0.25024 1.14135,-0.25024 0.6958,0 1.17798,0.29297 0.48828,0.29297 0.72632,0.81177 0.6958,-0.58594 1.26953,-0.84229 0.57373,-0.26245 1.22681,-0.26245 1.12305,0 1.65405,0.68359 0.53711,0.67749 0.53711,1.8982 l 0,4.42504 z"
     style="font-size:12.5px;fill:none;stroke:#00ff00;stroke-opacity:1"
     id="path4533"
     inkscape:connector-curvature="0" /><path
     d="m 272.01391,309.10435 -1.14746,0 0,-3.88183 q 0,-0.43945 -0.0427,-0.84839 -0.0366,-0.40894 -0.1648,-0.65308 -0.14038,-0.26245 -0.40283,-0.39672 -0.26245,-0.13428 -0.75683,-0.13428 -0.48218,0 -0.96436,0.24414 -0.48218,0.23804 -0.96436,0.61035 0.0183,0.14038 0.0305,0.32959 0.0122,0.18311 0.0122,0.36621 l 0,4.36401 -1.14746,0 0,-3.88183 q 0,-0.45166 -0.0427,-0.85449 -0.0366,-0.40894 -0.16479,-0.65308 -0.14038,-0.26245 -0.40283,-0.39062 -0.26245,-0.13428 -0.75684,-0.13428 -0.46997,0 -0.94604,0.23193 -0.46998,0.23194 -0.93995,0.59204 l 0,5.09033 -1.14746,0 0,-6.81762 1.14746,0 0,0.75683 q 0.53711,-0.44555 1.06812,-0.6958 0.53711,-0.25024 1.14136,-0.25024 0.6958,0 1.17798,0.29297 0.48828,0.29297 0.72631,0.81177 0.6958,-0.58594 1.26954,-0.84229 0.57373,-0.26245 1.2268,-0.26245 1.12305,0 1.65405,0.68359 0.53711,0.67749 0.53711,1.8982 l 0,4.42504 z"
     style="font-size:12.5px;fill:none;stroke:#00ff00;stroke-opacity:1"
     id="path4535"
     inkscape:connector-curvature="0" /><path
     d="m 261.32705,343.49245 -1.34888,0 0,2.55737 -1.17188,0 0,-2.55737 -4.3518,0 0,-1.40381 4.40063,-5.12695 1.12305,0 0,5.5542 1.34888,0 0,0.97656 z m -2.52076,-0.97656 0,-4.10156 -3.52173,4.10156 3.52173,0 z"
     style="font-size:12.5px;fill:none;stroke:#00ff00;stroke-opacity:1"
     id="path4537"
     inkscape:connector-curvature="0" /><path
     d="m 273.65837,345.41283 -1.14746,0 0,-3.88183 q 0,-0.43945 -0.0427,-0.84839 -0.0366,-0.40894 -0.1648,-0.65308 -0.14038,-0.26245 -0.40283,-0.39672 -0.26245,-0.13428 -0.75684,-0.13428 -0.48217,0 -0.96435,0.24414 -0.48218,0.23804 -0.96436,0.61035 0.0183,0.14038 0.0305,0.32959 0.0122,0.18311 0.0122,0.36621 l 0,4.36401 -1.14746,0 0,-3.88183 q 0,-0.45166 -0.0427,-0.85449 -0.0366,-0.40894 -0.16479,-0.65308 -0.14038,-0.26245 -0.40284,-0.39062 -0.26245,-0.13428 -0.75683,-0.13428 -0.46997,0 -0.94605,0.23193 -0.46997,0.23194 -0.93994,0.59204 l 0,5.09033 -1.14746,0 0,-6.81762 1.14746,0 0,0.75683 q 0.53711,-0.44555 1.06812,-0.6958 0.53711,-0.25024 1.14135,-0.25024 0.69581,0 1.17798,0.29297 0.48828,0.29297 0.72632,0.81177 0.6958,-0.58594 1.26953,-0.84229 0.57373,-0.26245 1.22681,-0.26245 1.12305,0 1.65405,0.68359 0.53711,0.67749 0.53711,1.8982 l 0,4.42504 z"
     style="font-size:12.5px;fill:none;stroke:#00ff00;stroke-opacity:1"
     id="path4539"
     inkscape:connector-curvature="0" /><path
     d="m 286.45356,346.04982 -1.14746,0 0,-3.88183 q 0,-0.43945 -0.0427,-0.84839 -0.0366,-0.40894 -0.1648,-0.65308 -0.14038,-0.26245 -0.40283,-0.39672 -0.26245,-0.13428 -0.75683,-0.13428 -0.48218,0 -0.96436,0.24414 -0.48218,0.23804 -0.96435,0.61035 0.0183,0.14038 0.0305,0.32959 0.0122,0.18311 0.0122,0.36621 l 0,4.36401 -1.14746,0 0,-3.88183 q 0,-0.45166 -0.0427,-0.85449 -0.0366,-0.40894 -0.16479,-0.65308 -0.14038,-0.26245 -0.40283,-0.39062 -0.26245,-0.13428 -0.75684,-0.13428 -0.46997,0 -0.94604,0.23193 -0.46997,0.23194 -0.93995,0.59204 l 0,5.09033 -1.14746,0 0,-6.81762 1.14746,0 0,0.75683 q 0.53711,-0.44555 1.06812,-0.6958 0.53711,-0.25024 1.14136,-0.25024 0.6958,0 1.17798,0.29297 0.48828,0.29297 0.72631,0.81177 0.69581,-0.58594 1.26954,-0.84229 0.57373,-0.26245 1.2268,-0.26245 1.12305,0 1.65406,0.68359 0.5371,0.67749 0.5371,1.8982 l 0,4.42504 z"
     style="font-size:12.5px;fill:none;stroke:#00ff00;stroke-opacity:1"
     id="path4541"
     inkscape:connector-curvature="0" /><path
     d="m 294.6689,308.46736 -6.15235,0 0,-1.27563 q 0.64087,-0.54932 1.28174,-1.09863 0.64697,-0.54932 1.20239,-1.09253 1.17188,-1.13526 1.60523,-1.80054 0.43335,-0.67139 0.43335,-1.44653 0,-0.70801 -0.46997,-1.10474 -0.46387,-0.40283 -1.30005,-0.40283 -0.55542,0 -1.20239,0.19531 -0.64698,0.19531 -1.26343,0.59815 l -0.061,0 0,-1.28174 q 0.43335,-0.21362 1.15357,-0.39063 0.72632,-0.177 1.40381,-0.177 1.3977,0 2.19116,0.67749 0.79345,0.67139 0.79345,1.82495 0,0.5188 -0.13427,0.97046 -0.12818,0.44556 -0.38452,0.84839 -0.23804,0.37842 -0.56153,0.74463 -0.31738,0.36621 -0.77514,0.81177 -0.65308,0.64087 -1.34888,1.24511 -0.6958,0.59815 -1.30005,1.11084 l 4.88892,0 0,1.0437 z"
     style="font-size:12.5px;fill:none;stroke:#00ff00;stroke-opacity:1"
     id="path4543"
     inkscape:connector-curvature="0" /><path
     d="m 309.11871,308.46736 -1.14746,0 0,-3.88183 q 0,-0.43945 -0.0427,-0.84839 -0.0366,-0.40894 -0.1648,-0.65308 -0.14038,-0.26245 -0.40283,-0.39672 -0.26245,-0.13428 -0.75684,-0.13428 -0.48217,0 -0.96435,0.24414 -0.48218,0.23804 -0.96436,0.61035 0.0183,0.14038 0.0305,0.32959 0.0122,0.18311 0.0122,0.36621 l 0,4.36401 -1.14746,0 0,-3.88183 q 0,-0.45166 -0.0427,-0.85449 -0.0366,-0.40894 -0.16479,-0.65308 -0.14038,-0.26245 -0.40284,-0.39062 -0.26245,-0.13428 -0.75683,-0.13428 -0.46997,0 -0.94605,0.23193 -0.46997,0.23194 -0.93994,0.59204 l 0,5.09033 -1.14746,0 0,-6.81762 1.14746,0 0,0.75683 q 0.53711,-0.44555 1.06812,-0.6958 0.53711,-0.25024 1.14136,-0.25024 0.6958,0 1.17797,0.29297 0.48828,0.29297 0.72632,0.81177 0.6958,-0.58594 1.26953,-0.84229 0.57373,-0.26245 1.22681,-0.26245 1.12305,0 1.65405,0.68359 0.53711,0.67749 0.53711,1.8982 l 0,4.42504 z"
     style="font-size:12.5px;fill:none;stroke:#00ff00;stroke-opacity:1"
     id="path4545"
     inkscape:connector-curvature="0" /><path
     d="m 321.91391,308.46736 -1.14747,0 0,-3.88183 q 0,-0.43945 -0.0427,-0.84839 -0.0366,-0.40894 -0.1648,-0.65308 -0.14038,-0.26245 -0.40283,-0.39672 -0.26245,-0.13428 -0.75683,-0.13428 -0.48218,0 -0.96436,0.24414 -0.48218,0.23804 -0.96435,0.61035 0.0183,0.14038 0.0305,0.32959 0.0122,0.18311 0.0122,0.36621 l 0,4.36401 -1.14746,0 0,-3.88183 q 0,-0.45166 -0.0427,-0.85449 -0.0366,-0.40894 -0.16479,-0.65308 -0.14038,-0.26245 -0.40283,-0.39062 -0.26245,-0.13428 -0.75684,-0.13428 -0.46997,0 -0.94604,0.23193 -0.46997,0.23194 -0.93994,0.59204 l 0,5.09033 -1.14747,0 0,-6.81762 1.14747,0 0,0.75683 q 0.5371,-0.44555 1.06811,-0.6958 0.53711,-0.25024 1.14136,-0.25024 0.6958,0 1.17798,0.29297 0.48828,0.29297 0.72632,0.81177 0.6958,-0.58594 1.26953,-0.84229 0.57373,-0.26245 1.2268,-0.26245 1.12305,0 1.65406,0.68359 0.53711,0.67749 0.53711,1.8982 l 0,4.42504 z"
     style="font-size:12.5px;fill:none;stroke:#00ff00;stroke-opacity:1"
     id="path4547"
     inkscape:connector-curvature="0" /><path
     d="m 309.22674,344.77585 -4.91944,0 0,-0.92773 1.89209,0 0,-6.09131 -1.89209,0 0,-0.83008 q 0.38453,0 0.82398,-0.061 0.43945,-0.0671 0.66528,-0.18921 0.28076,-0.15259 0.43946,-0.38452 0.16479,-0.23804 0.1892,-0.63477 l 0.94605,0 0,8.19092 1.85547,0 0,0.92773 z"
     style="font-size:12.5px;fill:none;stroke:#00ff00;stroke-opacity:1"
     id="path4549"
     inkscape:connector-curvature="0" /><path
     d="m 323.55836,344.13885 -1.14746,0 0,-3.88183 q 0,-0.43945 -0.0427,-0.84839 -0.0366,-0.40894 -0.1648,-0.65308 -0.14038,-0.26245 -0.40283,-0.39672 -0.26245,-0.13428 -0.75684,-0.13428 -0.48217,0 -0.96435,0.24414 -0.48218,0.23804 -0.96436,0.61035 0.0183,0.14038 0.0305,0.32959 0.0122,0.18311 0.0122,0.36621 l 0,4.36401 -1.14746,0 0,-3.88183 q 0,-0.45166 -0.0427,-0.85449 -0.0366,-0.40894 -0.16479,-0.65308 -0.14038,-0.26245 -0.40283,-0.39062 -0.26246,-0.13428 -0.75684,-0.13428 -0.46997,0 -0.94605,0.23193 -0.46997,0.23194 -0.93994,0.59204 l 0,5.09033 -1.14746,0 0,-6.81762 1.14746,0 0,0.75683 q 0.53711,-0.44555 1.06812,-0.6958 0.53711,-0.25024 1.14136,-0.25024 0.6958,0 1.17797,0.29297 0.48829,0.29297 0.72632,0.81177 0.6958,-0.58594 1.26953,-0.84229 0.57373,-0.26245 1.22681,-0.26245 1.12305,0 1.65405,0.68359 0.53711,0.67749 0.53711,1.8982 l 0,4.42504 z"
     style="font-size:12.5px;fill:none;stroke:#00ff00;stroke-opacity:1"
     id="path4551"
     inkscape:connector-curvature="0" /><path
     d="m 336.99055,344.13885 -1.14747,0 0,-3.88183 q 0,-0.43945 -0.0427,-0.84839 -0.0366,-0.40894 -0.16479,-0.65308 -0.14039,-0.26245 -0.40284,-0.39672 -0.26245,-0.13428 -0.75683,-0.13428 -0.48218,0 -0.96436,0.24414 -0.48218,0.23804 -0.96435,0.61035 0.0183,0.14038 0.0305,0.32959 0.0122,0.18311 0.0122,0.36621 l 0,4.36401 -1.14746,0 0,-3.88183 q 0,-0.45166 -0.0427,-0.85449 -0.0366,-0.40894 -0.1648,-0.65308 -0.14038,-0.26245 -0.40283,-0.39062 -0.26245,-0.13428 -0.75684,-0.13428 -0.46997,0 -0.94604,0.23193 -0.46997,0.23194 -0.93994,0.59204 l 0,5.09033 -1.14746,0 0,-6.81762 1.14746,0 0,0.75683 q 0.53711,-0.44555 1.06811,-0.6958 0.53711,-0.25024 1.14136,-0.25024 0.6958,0 1.17798,0.29297 0.48828,0.29297 0.72632,0.81177 0.6958,-0.58594 1.26953,-0.84229 0.57373,-0.26245 1.2268,-0.26245 1.12305,0 1.65406,0.68359 0.53711,0.67749 0.53711,1.8982 l 0,4.42504 z"
     style="font-size:12.5px;fill:none;stroke:#00ff00;stroke-opacity:1"
     id="path4553"
     inkscape:connector-curvature="0" /></g><path
   style="color:#000000;font-style:normal;font-variant:normal;font-weight:normal;font-stretch:normal;font-size:medium;line-height:normal;font-family:sans-serif;text-indent:0;text-align:start;text-decoration:none;text-decoration-line:none;text-decoration-style:solid;text-decoration-color:#000000;letter-spacing:normal;word-spacing:normal;text-transform:none;direction:ltr;block-progression:tb;writing-mode:lr-tb;baseline-shift:baseline;text-anchor:start;white-space:normal;clip-rule:nonzero;display:inline;overflow:visible;visibility:visible;opacity:1;isolation:auto;mix-blend-mode:normal;color-interpolation:sRGB;color-interpolation-filters:linearRGB;solid-color:#000000;solid-opacity:1;fill:none;fill-opacity:1;fill-rule:evenodd;stroke:#00ff00;stroke-width:1.04734528px;stroke-linecap:butt;stroke-linejoin:miter;stroke-miterlimit:4;stroke-dasharray:none;stroke-dashoffset:0;stroke-opacity:1;color-rendering:auto;image-rendering:auto;shape-rendering:auto;text-rendering:auto;enable-background:accumulate"
   d="m 237.83352,38.454476 c -53.95807,93.060594 -0.0137,198.116014 -0.0137,198.116014 l 0.86915,-0.54112 c 0,0 -53.6257,-104.51843 -0.0137,-196.982247 l -0.84185,-0.592647 z"
   id="path4239"
   inkscape:connector-curvature="0" /><path
   style="fill:none;fill-rule:evenodd;stroke:#00ff00;stroke-width:1.06286097px;stroke-linecap:butt;stroke-linejoin:miter;stroke-opacity:1"
   d="m 269.34509,36.663366 c -17.20612,19.566809 0.13764,39.603223 0.13764,39.759758 17.06848,19.566812 0.13766,39.603226 0.13766,39.603226 -17.48142,19.56681 -0.2753,39.60323 -0.2753,39.60323 17.34376,20.19293 0.13764,40.22935 0.13764,40.22935 -17.34376,19.41027 -0.13764,39.60323 -0.13764,39.60323"
   id="path4365"
   inkscape:connector-curvature="0" /><path
   style="opacity:1;fill:none;fill-opacity:1;fill-rule:nonzero;stroke:#0000ff;stroke-width:0.35433072;stroke-linecap:square;stroke-linejoin:miter;stroke-miterlimit:7.38333321;stroke-dasharray:2.12598425, 0.70866142;stroke-dashoffset:0;stroke-opacity:1"
   d="m 293.75,35.580708 6.25,0 0,207.812502 -6.25,0 z"
   id="rect4373"
   inkscape:connector-curvature="0" /><path
   id="path4473"
   style="fill:none;fill-rule:evenodd;stroke:#0000ff;stroke-width:0.98178154px;stroke-linecap:butt;stroke-linejoin:miter;stroke-opacity:1"
   d="m 325.13144,243.77197 c 8.01578,0 8.01578,0 8.01578,0 m -7.73937,-203.79864 8.70679,0 m -0.76522,0.579062 c -17.18937,20.050309 0.13751,40.581826 0.13751,40.74223 17.05185,20.050318 0.13751,40.581828 0.13751,40.581828 -17.46439,20.05031 -0.27502,40.58184 -0.27502,40.58184 17.32686,20.69189 0.13751,41.22341 0.13751,41.22341 -17.32688,19.8899 -0.13751,40.58185 -0.13751,40.58185 M 325.61005,40.020698 c -17.18801,20.102601 0.1375,40.687667 0.1375,40.848489 17.05053,20.102613 0.13751,40.687673 0.13751,40.687673 -17.46302,20.1026 -0.27501,40.68768 -0.27501,40.68768 17.32553,20.74586 0.1375,41.33094 0.1375,41.33094 -17.32551,19.94177 -0.1375,40.68767 -0.1375,40.68767"
   inkscape:connector-curvature="0" /></svg>